<svg width="948" height="510" viewBox="0 0 948 510" fill="none" xmlns="http://www.w3.org/2000/svg">
<g opacity="0.5">
<path d="M531.066 72.4589C531.018 72.4585 530.972 72.4415 530.933 72.4103C530.894 72.3791 530.866 72.3353 530.851 72.285L516.016 17.9329C515.995 17.8723 515.995 17.8046 516.016 17.744C516.045 17.6879 516.091 17.6455 516.146 17.6247L550.742 6.01864C550.796 5.99379 550.858 5.99379 550.912 6.01864C550.965 6.05072 551.005 6.10405 551.024 6.16776L565.858 60.5199C565.875 60.5831 565.868 60.6512 565.84 60.709C565.811 60.7667 565.763 60.8096 565.706 60.828L531.111 72.4341C531.097 72.4452 531.082 72.4536 531.066 72.4589ZM516.51 18.0273L531.214 71.9022L565.379 60.4403L550.697 6.56539L516.51 18.0273Z" fill="#096295"/>
<path d="M524.346 30.9853C524.298 30.9845 524.251 30.9668 524.212 30.9347C524.173 30.9025 524.145 30.8576 524.131 30.8064L522.49 24.7921C522.473 24.7288 522.479 24.6607 522.507 24.6022C522.534 24.5438 522.581 24.4995 522.638 24.479L528.067 22.6598C528.123 22.6411 528.184 22.6479 528.236 22.6786C528.288 22.7093 528.327 22.7615 528.345 22.8238L529.99 28.8431C529.998 28.8744 530.001 28.9072 529.998 28.9397C529.994 28.9721 529.986 29.0035 529.971 29.0321C529.957 29.0608 529.938 29.086 529.915 29.1064C529.892 29.1269 529.866 29.1421 529.838 29.1512L524.413 30.9754L524.346 30.9853ZM523.001 24.8816L524.516 30.4237L529.515 28.7486L527.982 23.1817L523.001 24.8816Z" fill="#096295"/>
<path d="M532.523 25.5178C532.475 25.5181 532.428 25.5014 532.389 25.4701C532.351 25.4388 532.322 25.3945 532.308 25.3438C532.299 25.3125 532.296 25.2795 532.299 25.2468C532.302 25.2142 532.31 25.1825 532.325 25.1537C532.339 25.1249 532.358 25.0996 532.382 25.0793C532.405 25.059 532.432 25.0442 532.46 25.0356L548.944 19.5035C549.001 19.4849 549.061 19.4916 549.113 19.5223C549.165 19.553 549.204 19.6052 549.222 19.6675C549.239 19.7308 549.233 19.7989 549.205 19.8574C549.178 19.9159 549.131 19.9601 549.074 19.9807L532.586 25.5178C532.565 25.5229 532.544 25.5229 532.523 25.5178Z" fill="#096295"/>
<path d="M527.327 41.8806C527.279 41.8802 527.233 41.8631 527.194 41.8319C527.156 41.8007 527.127 41.7569 527.112 41.7066L525.471 35.6874C525.454 35.6248 525.46 35.5573 525.488 35.4997C525.516 35.442 525.563 35.3987 525.619 35.3792L531.048 33.5551C531.104 33.5364 531.165 33.5432 531.217 33.5738C531.269 33.6045 531.308 33.6567 531.326 33.7191L532.971 39.7383C532.98 39.77 532.983 39.8033 532.98 39.8363C532.977 39.8693 532.969 39.9013 532.955 39.9305C532.94 39.9597 532.921 39.9854 532.898 40.0062C532.874 40.027 532.848 40.0424 532.819 40.0515L527.385 41.8707L527.327 41.8806ZM525.982 35.7818L527.497 41.3239L532.496 39.6439L530.972 34.1018L525.982 35.7818Z" fill="#096295"/>
<path d="M535.504 36.4528C535.445 36.4627 535.384 36.446 535.336 36.4064C535.287 36.3668 535.255 36.3075 535.246 36.2416C535.237 36.1757 535.252 36.1085 535.288 36.0549C535.324 36.0013 535.377 35.9657 535.437 35.9558L551.925 30.4237C551.985 30.4045 552.049 30.4124 552.103 30.4455C552.157 30.4786 552.197 30.5342 552.214 30.6001C552.232 30.666 552.225 30.7368 552.195 30.797C552.165 30.8571 552.115 30.9016 552.055 30.9207L535.567 36.4528H535.504Z" fill="#096295"/>
<path d="M530.308 52.8007C530.26 52.801 530.214 52.7843 530.175 52.753C530.136 52.7217 530.107 52.6775 530.093 52.6268L528.452 46.6075C528.436 46.5449 528.442 46.4775 528.469 46.4198C528.497 46.3621 528.544 46.3188 528.6 46.2993L534.029 44.4752C534.057 44.466 534.087 44.4632 534.116 44.4667C534.146 44.4703 534.174 44.4802 534.2 44.4959C534.226 44.5116 534.248 44.5327 534.267 44.5582C534.285 44.5836 534.299 44.6128 534.307 44.6442L535.952 50.6634C535.961 50.6948 535.963 50.7276 535.96 50.76C535.957 50.7925 535.948 50.8239 535.934 50.8525C535.92 50.8811 535.9 50.9064 535.878 50.9268C535.855 50.9472 535.828 50.9625 535.8 50.9716L530.376 52.7908C530.354 52.7989 530.331 52.8023 530.308 52.8007ZM528.963 46.702L530.474 52.244L535.455 50.569L533.944 45.0269L528.963 46.702Z" fill="#096295"/>
<path d="M538.485 47.3879C538.456 47.3928 538.426 47.3912 538.397 47.3832C538.368 47.3752 538.341 47.361 538.317 47.3414C538.293 47.3218 538.273 47.2972 538.257 47.2689C538.242 47.2406 538.232 47.2093 538.227 47.1766C538.223 47.144 538.224 47.1107 538.232 47.0787C538.239 47.0466 538.252 47.0165 538.269 46.99C538.287 46.9634 538.309 46.941 538.335 46.924C538.36 46.907 538.389 46.8957 538.418 46.8908L554.906 41.3587C554.936 41.3495 554.967 41.3469 554.997 41.351C555.027 41.355 555.057 41.3656 555.083 41.3823C555.11 41.3989 555.133 41.4212 555.152 41.4478C555.171 41.4745 555.185 41.505 555.193 41.5376C555.202 41.5703 555.204 41.6044 555.2 41.638C555.197 41.6717 555.187 41.7042 555.172 41.7337C555.157 41.7633 555.137 41.7892 555.113 41.8102C555.089 41.8311 555.061 41.8466 555.032 41.8557L538.548 47.3879H538.485Z" fill="#096295"/>
<path d="M533.289 63.7258C533.241 63.7251 533.194 63.7073 533.156 63.6752C533.117 63.643 533.088 63.5981 533.074 63.5469L531.42 57.5326C531.408 57.5021 531.401 57.4691 531.401 57.4357C531.401 57.4023 531.408 57.3693 531.42 57.3388C531.448 57.2818 531.494 57.239 531.55 57.2195L536.979 55.4003C537.035 55.3816 537.096 55.3884 537.148 55.4191C537.2 55.4498 537.239 55.502 537.257 55.5643L538.902 61.5836C538.91 61.6149 538.913 61.6477 538.91 61.6802C538.907 61.7126 538.898 61.744 538.884 61.7727C538.869 61.8013 538.85 61.8265 538.827 61.847C538.804 61.8674 538.778 61.8826 538.75 61.8917L533.321 63.7159L533.289 63.7258ZM531.945 57.6221L533.455 63.1642L538.454 61.4891L536.943 55.9471L531.945 57.6221Z" fill="#096295"/>
<path d="M541.466 58.3229C541.419 58.3232 541.372 58.3065 541.333 58.2752C541.294 58.2439 541.266 58.1996 541.251 58.1489C541.234 58.0863 541.241 58.0189 541.268 57.9612C541.296 57.9035 541.343 57.8603 541.399 57.8408L557.87 52.2888C557.926 52.2701 557.987 52.2769 558.039 52.3076C558.091 52.3383 558.13 52.3904 558.148 52.4528C558.157 52.4841 558.16 52.5171 558.157 52.5498C558.154 52.5824 558.145 52.6141 558.131 52.6429C558.116 52.6717 558.097 52.697 558.074 52.7173C558.051 52.7376 558.024 52.7524 557.995 52.761L541.511 58.2931C541.498 58.3058 541.483 58.3159 541.466 58.3229Z" fill="#096295"/>
<path d="M523.315 15.6862C523.264 15.6855 523.215 15.6663 523.176 15.6315C523.147 15.6064 523.124 15.5737 523.109 15.5365C523.094 15.4992 523.088 15.4584 523.091 15.4178L523.27 12.8232C523.275 12.7733 523.293 12.7261 523.321 12.6873C523.35 12.6484 523.388 12.6197 523.431 12.6045L530.075 10.3728L530.29 7.92234C530.295 7.87373 530.312 7.82769 530.34 7.78977C530.368 7.75185 530.405 7.72366 530.447 7.70861L533.908 6.54552C533.95 6.532 533.995 6.53232 534.037 6.54642C534.08 6.56053 534.117 6.58783 534.146 6.62504L535.549 8.53868L542.202 6.30693C542.245 6.29152 542.291 6.29136 542.335 6.3065C542.378 6.32163 542.416 6.35131 542.444 6.39143L543.892 8.43927C543.914 8.47126 543.929 8.50882 543.935 8.54866C543.941 8.5885 543.939 8.62944 543.928 8.66791C543.917 8.70652 543.898 8.74165 543.872 8.77023C543.846 8.79881 543.814 8.81999 543.78 8.83193L523.377 15.6763C523.357 15.6847 523.336 15.6881 523.315 15.6862ZM523.705 13.032L523.561 15.0798L543.34 8.44424L542.179 6.82883L535.531 9.06057C535.489 9.07409 535.444 9.07378 535.402 9.05967C535.359 9.04556 535.322 9.01826 535.293 8.98105L533.89 7.07239L530.725 8.12116L530.523 10.6064C530.52 10.6556 530.504 10.7026 530.476 10.7409C530.447 10.7792 530.409 10.8069 530.366 10.8201L523.705 13.032Z" fill="#096295"/>
<path d="M285.066 509.459C285.018 509.458 284.972 509.441 284.933 509.41C284.894 509.379 284.866 509.335 284.851 509.285L270.016 454.933C269.995 454.872 269.995 454.805 270.016 454.744C270.045 454.688 270.091 454.645 270.146 454.625L304.742 443.019C304.796 442.994 304.858 442.994 304.912 443.019C304.965 443.051 305.005 443.104 305.024 443.168L319.858 497.52C319.875 497.583 319.868 497.651 319.84 497.709C319.811 497.767 319.763 497.81 319.706 497.828L285.111 509.434C285.097 509.445 285.082 509.454 285.066 509.459ZM270.51 455.027L285.214 508.902L319.379 497.44L304.697 443.565L270.51 455.027Z" fill="#096295"/>
<path d="M278.346 467.985C278.298 467.985 278.251 467.967 278.212 467.935C278.173 467.903 278.145 467.858 278.131 467.806L276.49 461.792C276.473 461.729 276.479 461.661 276.507 461.602C276.534 461.544 276.581 461.5 276.638 461.479L282.067 459.66C282.123 459.641 282.184 459.648 282.236 459.679C282.288 459.709 282.327 459.761 282.345 459.824L283.99 465.843C283.998 465.874 284.001 465.907 283.998 465.94C283.994 465.972 283.986 466.004 283.971 466.032C283.957 466.061 283.938 466.086 283.915 466.106C283.892 466.127 283.866 466.142 283.838 466.151L278.413 467.975L278.346 467.985ZM277.001 461.882L278.516 467.424L283.515 465.749L281.982 460.182L277.001 461.882Z" fill="#096295"/>
<path d="M286.523 462.518C286.475 462.518 286.428 462.501 286.39 462.47C286.351 462.439 286.322 462.395 286.308 462.344C286.299 462.313 286.296 462.28 286.299 462.247C286.302 462.214 286.31 462.183 286.325 462.154C286.339 462.125 286.358 462.1 286.382 462.079C286.405 462.059 286.432 462.044 286.46 462.036L302.944 456.504C303.001 456.485 303.061 456.492 303.114 456.522C303.166 456.553 303.205 456.605 303.222 456.668C303.239 456.731 303.233 456.799 303.206 456.857C303.178 456.916 303.131 456.96 303.074 456.981L286.586 462.518C286.565 462.523 286.544 462.523 286.523 462.518Z" fill="#096295"/>
<path d="M281.327 478.881C281.279 478.88 281.233 478.863 281.194 478.832C281.156 478.801 281.127 478.757 281.112 478.707L279.471 472.687C279.454 472.625 279.46 472.557 279.488 472.5C279.516 472.442 279.563 472.399 279.619 472.379L285.048 470.555C285.105 470.536 285.165 470.543 285.217 470.574C285.269 470.605 285.308 470.657 285.326 470.719L286.971 476.738C286.98 476.77 286.983 476.803 286.98 476.836C286.978 476.869 286.969 476.901 286.955 476.931C286.94 476.96 286.921 476.985 286.898 477.006C286.874 477.027 286.848 477.042 286.819 477.051L281.385 478.871L281.327 478.881ZM279.982 472.782L281.498 478.324L286.496 476.644L284.972 471.102L279.982 472.782Z" fill="#096295"/>
<path d="M289.504 473.453C289.445 473.463 289.384 473.446 289.336 473.406C289.287 473.367 289.255 473.308 289.246 473.242C289.237 473.176 289.252 473.109 289.288 473.055C289.324 473.001 289.377 472.966 289.437 472.956L305.925 467.424C305.985 467.405 306.049 467.412 306.103 467.445C306.157 467.479 306.197 467.534 306.214 467.6C306.232 467.666 306.225 467.737 306.195 467.797C306.165 467.857 306.115 467.902 306.055 467.921L289.567 473.453H289.504Z" fill="#096295"/>
<path d="M284.308 489.801C284.26 489.801 284.214 489.784 284.175 489.753C284.136 489.722 284.107 489.677 284.093 489.627L282.452 483.608C282.436 483.545 282.442 483.477 282.469 483.42C282.497 483.362 282.544 483.319 282.6 483.299L288.029 481.475C288.057 481.466 288.087 481.463 288.116 481.467C288.146 481.47 288.174 481.48 288.2 481.496C288.226 481.512 288.248 481.533 288.267 481.558C288.285 481.584 288.299 481.613 288.307 481.644L289.952 487.663C289.961 487.695 289.963 487.728 289.96 487.76C289.957 487.792 289.948 487.824 289.934 487.853C289.92 487.881 289.9 487.906 289.878 487.927C289.855 487.947 289.828 487.962 289.8 487.972L284.376 489.791C284.354 489.799 284.331 489.802 284.308 489.801ZM282.963 483.702L284.474 489.244L289.455 487.569L287.944 482.027L282.963 483.702Z" fill="#096295"/>
<path d="M292.485 484.388C292.456 484.393 292.426 484.391 292.397 484.383C292.368 484.375 292.341 484.361 292.317 484.341C292.293 484.322 292.273 484.297 292.257 484.269C292.242 484.241 292.232 484.209 292.227 484.177C292.223 484.144 292.224 484.111 292.232 484.079C292.239 484.047 292.252 484.017 292.269 483.99C292.287 483.963 292.309 483.941 292.335 483.924C292.36 483.907 292.389 483.896 292.418 483.891L308.906 478.359C308.936 478.35 308.967 478.347 308.997 478.351C309.027 478.355 309.057 478.366 309.083 478.382C309.11 478.399 309.133 478.421 309.152 478.448C309.171 478.474 309.185 478.505 309.193 478.538C309.202 478.57 309.204 478.604 309.2 478.638C309.197 478.672 309.187 478.704 309.172 478.734C309.157 478.763 309.137 478.789 309.113 478.81C309.089 478.831 309.061 478.847 309.032 478.856L292.548 484.388H292.485Z" fill="#096295"/>
<path d="M287.289 500.726C287.241 500.725 287.194 500.707 287.156 500.675C287.117 500.643 287.088 500.598 287.074 500.547L285.42 494.533C285.408 494.502 285.401 494.469 285.401 494.436C285.401 494.402 285.408 494.369 285.42 494.339C285.448 494.282 285.494 494.239 285.55 494.219L290.979 492.4C291.035 492.382 291.096 492.388 291.148 492.419C291.2 492.45 291.239 492.502 291.257 492.564L292.902 498.584C292.91 498.615 292.913 498.648 292.91 498.68C292.907 498.713 292.898 498.744 292.884 498.773C292.869 498.801 292.85 498.827 292.827 498.847C292.804 498.867 292.778 498.883 292.75 498.892L287.321 500.716L287.289 500.726ZM285.945 494.622L287.455 500.164L292.454 498.489L290.943 492.947L285.945 494.622Z" fill="#096295"/>
<path d="M295.466 495.323C295.419 495.323 295.372 495.307 295.333 495.275C295.294 495.244 295.266 495.2 295.251 495.149C295.234 495.086 295.241 495.019 295.268 494.961C295.296 494.904 295.343 494.86 295.399 494.841L311.87 489.289C311.926 489.27 311.987 489.277 312.039 489.308C312.091 489.338 312.13 489.39 312.148 489.453C312.157 489.484 312.16 489.517 312.157 489.55C312.154 489.582 312.145 489.614 312.131 489.643C312.116 489.672 312.097 489.697 312.074 489.717C312.051 489.738 312.024 489.752 311.995 489.761L295.511 495.293C295.498 495.306 295.483 495.316 295.466 495.323Z" fill="#096295"/>
<path d="M277.315 452.686C277.264 452.686 277.215 452.666 277.176 452.632C277.147 452.606 277.124 452.574 277.109 452.536C277.094 452.499 277.088 452.458 277.091 452.418L277.27 449.823C277.275 449.773 277.293 449.726 277.321 449.687C277.35 449.648 277.388 449.62 277.431 449.605L284.075 447.373L284.29 444.922C284.295 444.874 284.312 444.828 284.34 444.79C284.368 444.752 284.405 444.724 284.447 444.709L287.908 443.546C287.95 443.532 287.995 443.532 288.038 443.546C288.08 443.561 288.117 443.588 288.146 443.625L289.549 445.539L296.202 443.307C296.245 443.292 296.291 443.291 296.335 443.306C296.378 443.322 296.416 443.351 296.444 443.391L297.892 445.439C297.914 445.471 297.929 445.509 297.935 445.549C297.941 445.589 297.939 445.629 297.928 445.668C297.917 445.707 297.898 445.742 297.872 445.77C297.846 445.799 297.815 445.82 297.78 445.832L277.378 452.676C277.358 452.685 277.336 452.688 277.315 452.686ZM277.705 450.032L277.561 452.08L297.34 445.444L296.179 443.829L289.531 446.061C289.489 446.074 289.444 446.074 289.402 446.06C289.359 446.046 289.322 446.018 289.293 445.981L287.89 444.072L284.725 445.121L284.523 447.606C284.52 447.656 284.504 447.703 284.476 447.741C284.448 447.779 284.409 447.807 284.367 447.82L277.705 450.032Z" fill="#096295"/>
<path d="M708.31 327.235L718.951 325.751L712.383 303.757L701.742 305.241L708.31 327.235Z" fill="white"/>
<path d="M708.644 326.812C708.594 326.812 708.544 326.802 708.501 326.784C708.473 326.771 708.45 326.755 708.431 326.736C708.413 326.717 708.4 326.695 708.394 326.673L701.914 304.673C701.902 304.627 701.916 304.579 701.955 304.541C701.972 304.521 701.995 304.505 702.022 304.492C702.05 304.479 702.081 304.471 702.113 304.467L712.757 303.003C712.824 302.994 712.894 303.004 712.951 303.031C712.979 303.042 713.003 303.058 713.021 303.077C713.04 303.095 713.052 303.116 713.058 303.139L719.533 325.142C719.54 325.164 719.541 325.187 719.535 325.209C719.529 325.232 719.516 325.253 719.497 325.272C719.479 325.291 719.454 325.307 719.426 325.32C719.398 325.332 719.367 325.34 719.334 325.344L708.69 326.809L708.644 326.812ZM702.465 304.774L708.843 326.432L718.982 325.037L712.609 303.362L702.465 304.774Z" fill="#096295"/>
<path d="M710.431 326.354L717.514 325.381L711.04 303.379L703.957 304.352L710.431 326.354Z" fill="white"/>
<path d="M710.42 326.55C710.362 326.55 710.306 326.536 710.261 326.511C710.216 326.485 710.186 326.45 710.175 326.411L703.695 304.408C703.689 304.386 703.689 304.363 703.696 304.341C703.703 304.319 703.717 304.298 703.736 304.279C703.753 304.26 703.776 304.243 703.803 304.231C703.831 304.218 703.861 304.209 703.894 304.206L710.976 303.229C711.009 303.225 711.044 303.225 711.077 303.229C711.11 303.234 711.141 303.243 711.169 303.256C711.197 303.269 711.221 303.286 711.24 303.305C711.258 303.324 711.271 303.346 711.277 303.369L717.752 325.368C717.759 325.39 717.76 325.413 717.754 325.435C717.747 325.458 717.735 325.479 717.716 325.497C717.679 325.536 717.62 325.564 717.553 325.574L710.471 326.547L710.42 326.55ZM704.246 304.513L710.624 326.17L717.206 325.264L710.828 303.606L704.246 304.513Z" fill="#096295"/>
<path d="M703.407 328.29L725.026 325.316L724.701 324.212L703.082 327.185L703.407 328.29Z" fill="white"/>
<path d="M703.414 328.44C703.366 328.44 703.318 328.43 703.277 328.413C703.22 328.387 703.179 328.347 703.164 328.301L702.843 327.199C702.836 327.177 702.835 327.153 702.841 327.131C702.847 327.108 702.86 327.086 702.878 327.067C702.897 327.048 702.921 327.032 702.949 327.019C702.977 327.006 703.009 326.997 703.042 326.993L724.661 324.022C724.694 324.018 724.727 324.019 724.759 324.023C724.792 324.028 724.823 324.037 724.85 324.05C724.878 324.062 724.903 324.078 724.923 324.096C724.942 324.115 724.955 324.136 724.962 324.158L725.283 325.264C725.29 325.286 725.29 325.309 725.284 325.332C725.278 325.354 725.265 325.376 725.246 325.395C725.228 325.414 725.204 325.43 725.176 325.443C725.148 325.456 725.117 325.465 725.084 325.47L703.465 328.44H703.414ZM703.414 327.3L703.639 328.06L724.758 325.159L724.533 324.396L703.414 327.3Z" fill="#096295"/>
<path d="M697.036 268.997C696.977 268.997 696.92 268.984 696.875 268.958C696.829 268.933 696.798 268.897 696.786 268.858L691.005 249.209C690.998 249.186 690.998 249.163 691.005 249.141C691.011 249.118 691.024 249.097 691.042 249.078C691.061 249.059 691.085 249.042 691.112 249.029C691.14 249.016 691.171 249.008 691.204 249.003C691.27 248.995 691.339 249.004 691.395 249.029C691.451 249.055 691.49 249.094 691.505 249.139L697.291 268.788C697.298 268.811 697.298 268.834 697.291 268.857C697.285 268.88 697.271 268.901 697.252 268.92C697.233 268.939 697.209 268.956 697.181 268.968C697.152 268.981 697.121 268.99 697.087 268.994L697.036 268.997Z" fill="#096295"/>
<path d="M696.623 275.197L701.026 274.594L697.353 267.554L696.031 267.739L696.623 275.197Z" fill="#096295"/>
<path d="M696.623 275.372C696.558 275.372 696.496 275.355 696.45 275.324C696.403 275.294 696.376 275.252 696.373 275.208L695.776 267.746C695.773 267.704 695.792 267.663 695.83 267.63C695.867 267.596 695.92 267.573 695.98 267.564L697.302 267.383C697.362 267.374 697.426 267.381 697.48 267.402C697.533 267.423 697.574 267.458 697.592 267.498L701.266 274.535C701.281 274.557 701.289 274.582 701.289 274.606C701.289 274.631 701.281 274.655 701.266 274.678C701.248 274.7 701.223 274.719 701.193 274.734C701.163 274.749 701.129 274.759 701.093 274.765L696.689 275.368L696.623 275.372ZM696.296 267.882L696.863 274.992L700.69 274.465L697.184 267.76L696.296 267.882Z" fill="#096295"/>
<path d="M703.551 273.623L693.731 274.973L694.929 279.044L704.749 277.695L703.551 273.623Z" fill="white"/>
<path d="M694.955 279.2C694.896 279.201 694.838 279.187 694.792 279.162C694.747 279.136 694.715 279.101 694.705 279.061L693.506 274.992C693.492 274.946 693.504 274.898 693.541 274.859C693.56 274.84 693.584 274.824 693.612 274.811C693.64 274.799 693.672 274.79 693.705 274.786L703.527 273.433C703.593 273.426 703.662 273.436 703.718 273.462C703.774 273.488 703.813 273.527 703.828 273.572L705.006 277.645C705.018 277.691 705.004 277.738 704.966 277.776C704.928 277.815 704.869 277.842 704.802 277.851L694.985 279.2H694.955ZM694.057 275.093L695.154 278.82L704.476 277.541L703.353 273.809L694.057 275.093Z" fill="#096295"/>
<path d="M703.399 312.745L716.267 310.974L705.955 276.372L693.087 278.144L703.399 312.745Z" fill="#096295"/>
<path d="M703.399 312.92C703.34 312.919 703.284 312.905 703.239 312.88C703.193 312.854 703.162 312.819 703.149 312.78L692.837 278.179C692.824 278.133 692.839 278.085 692.878 278.046C692.895 278.027 692.918 278.01 692.945 277.998C692.973 277.985 693.003 277.977 693.036 277.973L705.904 276.202C705.971 276.193 706.039 276.203 706.095 276.228C706.151 276.253 706.191 276.293 706.205 276.338L716.517 310.939C716.531 310.985 716.519 311.032 716.482 311.072C716.463 311.091 716.439 311.107 716.411 311.12C716.383 311.132 716.351 311.141 716.318 311.145L703.45 312.916L703.399 312.92ZM693.388 278.28L703.593 312.54L715.961 310.838L705.756 276.578L693.388 278.28Z" fill="#096295"/>
<path d="M703.408 312.725L716.274 310.957L713.194 300.49L700.328 302.258L703.408 312.725Z" fill="white"/>
<path d="M703.399 312.92C703.35 312.92 703.301 312.909 703.261 312.888C703.205 312.864 703.164 312.825 703.149 312.78L700.088 302.319C700.081 302.297 700.081 302.274 700.088 302.251C700.095 302.229 700.108 302.207 700.127 302.189C700.146 302.17 700.17 302.154 700.199 302.141C700.227 302.129 700.259 302.121 700.292 302.117L713.155 300.346C713.222 300.337 713.292 300.347 713.349 300.374C713.404 300.398 713.443 300.437 713.456 300.482L716.517 310.943C716.524 310.965 716.524 310.988 716.518 311.01C716.511 311.032 716.499 311.053 716.48 311.072C716.462 311.091 716.438 311.107 716.41 311.12C716.382 311.132 716.351 311.141 716.318 311.145L703.45 312.916L703.399 312.92ZM700.618 302.403L703.598 312.515L715.966 310.814L712.987 300.701L700.618 302.403Z" fill="#096295"/>
<path d="M701.082 304.83L713.947 303.061L712.442 297.944L699.576 299.712L701.082 304.83Z" fill="#096295"/>
<path d="M701.077 305.022C701.018 305.022 700.961 305.009 700.915 304.983C700.869 304.958 700.838 304.922 700.827 304.882L699.297 299.767C699.285 299.721 699.299 299.674 699.337 299.635C699.376 299.597 699.434 299.57 699.501 299.561L712.364 297.793C712.397 297.788 712.431 297.788 712.464 297.792C712.497 297.796 712.529 297.805 712.557 297.817C712.585 297.83 712.609 297.846 712.628 297.866C712.646 297.885 712.659 297.906 712.665 297.929L714.196 303.045C714.203 303.067 714.203 303.09 714.196 303.113C714.19 303.135 714.177 303.157 714.159 303.176C714.14 303.195 714.116 303.211 714.089 303.224C714.061 303.237 714.03 303.246 713.997 303.25L701.128 305.018L701.077 305.022ZM699.868 299.868L701.276 304.642L713.64 302.943L712.236 298.166L699.868 299.868Z" fill="#096295"/>
<path d="M700.661 303.401L713.527 301.632L712.861 299.369L699.995 301.137L700.661 303.401Z" fill="#F0F0F0"/>
<path d="M700.654 303.596C700.595 303.596 700.538 303.582 700.493 303.556C700.447 303.531 700.416 303.495 700.404 303.456L699.741 301.193C699.727 301.147 699.74 301.1 699.776 301.06C699.795 301.041 699.819 301.025 699.847 301.012C699.875 301 699.907 300.991 699.94 300.987L712.813 299.216C712.879 299.208 712.948 299.218 713.003 299.244C713.059 299.27 713.097 299.31 713.109 299.355L713.778 301.618C713.791 301.664 713.778 301.711 713.742 301.751C713.702 301.788 713.644 301.814 713.579 301.824L700.71 303.592L700.654 303.596ZM700.292 301.294L700.858 303.215L713.221 301.517L712.655 299.592L700.292 301.294Z" fill="#096295"/>
<path d="M705.119 289.065C705.06 289.065 705.003 289.05 704.958 289.025C704.913 289 704.881 288.965 704.868 288.926C704.862 288.903 704.862 288.88 704.869 288.857C704.875 288.834 704.888 288.813 704.907 288.794C704.926 288.774 704.951 288.758 704.979 288.745C705.008 288.733 705.039 288.724 705.073 288.72L707.037 288.448C707.07 288.443 707.104 288.443 707.137 288.448C707.169 288.452 707.201 288.461 707.229 288.473C707.257 288.486 707.281 288.502 707.3 288.521C707.318 288.54 707.331 288.562 707.338 288.584C707.346 288.606 707.346 288.63 707.34 288.652C707.334 288.675 707.321 288.697 707.303 288.716C707.284 288.735 707.26 288.751 707.232 288.764C707.204 288.777 707.172 288.786 707.139 288.79L705.17 289.062L705.119 289.065Z" fill="#096295"/>
<path d="M705.568 290.589C705.509 290.589 705.452 290.575 705.406 290.55C705.361 290.524 705.329 290.489 705.318 290.45C705.306 290.404 705.32 290.357 705.358 290.318C705.396 290.28 705.455 290.253 705.522 290.244L707.491 289.972C707.558 289.964 707.626 289.974 707.681 290C707.737 290.026 707.775 290.066 707.787 290.111C707.795 290.134 707.795 290.157 707.789 290.179C707.783 290.201 707.77 290.223 707.752 290.242C707.733 290.261 707.709 290.277 707.681 290.289C707.653 290.302 707.621 290.31 707.588 290.314L705.619 290.585L705.568 290.589Z" fill="#096295"/>
<path d="M706.017 292.116C705.983 292.118 705.949 292.116 705.917 292.109C705.885 292.102 705.855 292.091 705.829 292.076C705.804 292.062 705.782 292.044 705.767 292.023C705.751 292.003 705.741 291.981 705.738 291.958C705.735 291.935 705.739 291.912 705.749 291.89C705.759 291.868 705.775 291.847 705.797 291.83C705.819 291.812 705.845 291.798 705.875 291.787C705.905 291.776 705.937 291.77 705.971 291.768L707.94 291.499C707.973 291.495 708.006 291.494 708.039 291.499C708.071 291.503 708.102 291.512 708.13 291.525C708.157 291.537 708.181 291.554 708.199 291.573C708.217 291.592 708.23 291.613 708.236 291.635C708.243 291.658 708.243 291.681 708.237 291.703C708.23 291.726 708.217 291.747 708.199 291.766C708.18 291.785 708.157 291.802 708.129 291.814C708.101 291.827 708.07 291.836 708.037 291.841L706.068 292.113L706.017 292.116Z" fill="#096295"/>
<path d="M706.466 293.64C706.407 293.64 706.35 293.626 706.304 293.601C706.259 293.575 706.227 293.54 706.216 293.501C706.204 293.455 706.218 293.408 706.256 293.369C706.295 293.331 706.353 293.304 706.42 293.295L708.389 293.023C708.423 293.019 708.457 293.019 708.491 293.024C708.524 293.028 708.556 293.037 708.584 293.051C708.612 293.064 708.636 293.08 708.655 293.1C708.674 293.119 708.687 293.141 708.693 293.164C708.699 293.187 708.699 293.211 708.692 293.233C708.685 293.256 708.672 293.278 708.652 293.297C708.633 293.316 708.609 293.333 708.58 293.346C708.552 293.358 708.52 293.367 708.486 293.372L706.517 293.644L706.466 293.64Z" fill="#096295"/>
<path d="M706.915 295.164C706.856 295.164 706.799 295.15 706.753 295.125C706.708 295.099 706.676 295.064 706.665 295.024C706.653 294.979 706.667 294.932 706.705 294.893C706.743 294.855 706.802 294.828 706.869 294.819L708.838 294.55C708.871 294.546 708.904 294.546 708.937 294.55C708.969 294.554 709 294.563 709.028 294.576C709.056 294.588 709.079 294.605 709.097 294.624C709.116 294.643 709.128 294.664 709.134 294.686C709.141 294.709 709.141 294.732 709.135 294.754C709.128 294.777 709.116 294.798 709.097 294.817C709.079 294.836 709.055 294.853 709.027 294.866C708.999 294.878 708.968 294.887 708.935 294.892L706.966 295.16L706.915 295.164Z" fill="#096295"/>
<path d="M707.364 296.691C707.296 296.695 707.229 296.681 707.177 296.651C707.125 296.622 707.092 296.579 707.086 296.533C707.08 296.486 707.101 296.44 707.144 296.405C707.188 296.369 707.25 296.347 707.318 296.343L709.282 296.071C709.315 296.066 709.349 296.066 709.382 296.07C709.415 296.075 709.446 296.083 709.474 296.096C709.502 296.109 709.526 296.125 709.545 296.144C709.564 296.163 709.577 296.184 709.583 296.207C709.591 296.229 709.591 296.252 709.585 296.275C709.579 296.298 709.567 296.319 709.548 296.338C709.529 296.358 709.505 296.374 709.477 296.387C709.449 296.399 709.418 296.408 709.384 296.412L707.415 296.684L707.364 296.691Z" fill="#096295"/>
<path d="M702.481 279.849C702.422 279.849 702.365 279.835 702.319 279.81C702.274 279.784 702.242 279.749 702.231 279.71C702.219 279.664 702.233 279.617 702.271 279.578C702.31 279.54 702.368 279.513 702.435 279.504L704.404 279.235C704.437 279.231 704.47 279.231 704.503 279.235C704.535 279.239 704.566 279.248 704.594 279.261C704.622 279.274 704.645 279.29 704.663 279.309C704.682 279.328 704.694 279.349 704.7 279.371C704.707 279.394 704.707 279.417 704.701 279.439C704.694 279.462 704.682 279.483 704.663 279.502C704.645 279.521 704.621 279.538 704.593 279.551C704.565 279.563 704.534 279.572 704.501 279.577L702.532 279.846L702.481 279.849Z" fill="#096295"/>
<path d="M702.93 281.376C702.862 281.38 702.795 281.366 702.742 281.336C702.69 281.307 702.658 281.264 702.652 281.218C702.645 281.171 702.666 281.125 702.71 281.09C702.754 281.054 702.816 281.032 702.884 281.028L704.853 280.756C704.921 280.747 704.991 280.757 705.048 280.783C705.105 280.81 705.144 280.851 705.157 280.897C705.17 280.943 705.155 280.991 705.116 281.03C705.078 281.069 705.018 281.096 704.95 281.104L702.981 281.376H702.93Z" fill="#096295"/>
<path d="M703.379 282.9C703.32 282.9 703.263 282.886 703.217 282.861C703.172 282.835 703.141 282.8 703.129 282.761C703.117 282.715 703.131 282.668 703.169 282.629C703.208 282.591 703.266 282.564 703.333 282.555L705.302 282.286C705.335 282.282 705.368 282.282 705.401 282.286C705.434 282.291 705.464 282.299 705.492 282.312C705.52 282.325 705.543 282.341 705.561 282.36C705.58 282.379 705.592 282.4 705.598 282.422C705.605 282.445 705.605 282.468 705.599 282.49C705.592 282.513 705.58 282.534 705.561 282.553C705.543 282.573 705.519 282.589 705.491 282.602C705.463 282.615 705.432 282.624 705.399 282.628L703.43 282.897L703.379 282.9Z" fill="#096295"/>
<path d="M703.828 284.427C703.769 284.427 703.711 284.412 703.666 284.386C703.62 284.36 703.589 284.324 703.578 284.284C703.566 284.239 703.581 284.192 703.619 284.155C703.657 284.117 703.716 284.091 703.782 284.082L705.751 283.81C705.784 283.806 705.817 283.806 705.85 283.81C705.883 283.814 705.914 283.823 705.941 283.836C705.969 283.848 705.992 283.865 706.01 283.884C706.029 283.903 706.041 283.924 706.047 283.946C706.055 283.969 706.055 283.992 706.049 284.015C706.043 284.037 706.031 284.059 706.012 284.078C705.993 284.097 705.969 284.114 705.941 284.126C705.913 284.139 705.881 284.148 705.848 284.152L703.879 284.424L703.828 284.427Z" fill="#096295"/>
<path d="M704.277 285.951C704.218 285.951 704.161 285.937 704.115 285.912C704.07 285.887 704.038 285.851 704.027 285.812C704.015 285.766 704.029 285.719 704.067 285.68C704.105 285.642 704.164 285.615 704.231 285.606L706.2 285.334C706.266 285.326 706.335 285.336 706.39 285.362C706.446 285.388 706.484 285.428 706.496 285.474C706.504 285.496 706.504 285.519 706.498 285.541C706.492 285.564 706.479 285.585 706.461 285.604C706.442 285.623 706.418 285.639 706.39 285.651C706.362 285.664 706.33 285.672 706.297 285.676L704.328 285.948L704.277 285.951Z" fill="#096295"/>
<path d="M704.726 287.475C704.667 287.475 704.61 287.461 704.564 287.436C704.519 287.41 704.487 287.375 704.476 287.336C704.464 287.29 704.478 287.243 704.516 287.204C704.555 287.166 704.613 287.139 704.68 287.13L706.649 286.861C706.717 286.853 706.787 286.863 706.844 286.889C706.901 286.915 706.94 286.956 706.953 287.003C706.966 287.049 706.951 287.097 706.912 287.136C706.874 287.174 706.814 287.201 706.746 287.21L704.777 287.479L704.726 287.475Z" fill="#096295"/>
<path d="M25.3101 150.235L35.9509 148.751L29.383 126.757L18.7422 128.241L25.3101 150.235Z" fill="white"/>
<path d="M25.6443 149.812C25.5938 149.812 25.5444 149.802 25.5014 149.784C25.4735 149.771 25.4497 149.755 25.4313 149.736C25.4129 149.717 25.4003 149.695 25.3943 149.673L18.9142 127.673C18.9017 127.627 18.9164 127.579 18.955 127.541C18.9721 127.521 18.9951 127.505 19.0224 127.492C19.0497 127.479 19.0807 127.471 19.1132 127.467L29.7569 126.003C29.8243 125.994 29.894 126.004 29.9508 126.031C29.9789 126.042 30.0031 126.058 30.0215 126.077C30.04 126.095 30.0524 126.116 30.0579 126.139L36.5329 148.142C36.5403 148.164 36.541 148.187 36.5348 148.209C36.5287 148.232 36.5159 148.253 36.4973 148.272C36.4787 148.291 36.4546 148.307 36.4265 148.32C36.3984 148.332 36.3669 148.34 36.3339 148.344L25.6902 149.809L25.6443 149.812ZM19.4652 127.774L25.8433 149.432L35.9818 148.037L29.6089 126.362L19.4652 127.774Z" fill="#096295"/>
<path d="M27.4309 149.354L34.5141 148.381L28.04 126.379L20.9568 127.352L27.4309 149.354Z" fill="white"/>
<path d="M27.42 149.55C27.3618 149.55 27.3055 149.536 27.2608 149.511C27.2161 149.485 27.1858 149.45 27.1751 149.411L20.695 127.408C20.6889 127.386 20.6894 127.363 20.6964 127.341C20.7034 127.319 20.7168 127.298 20.7358 127.279C20.753 127.26 20.7759 127.243 20.8032 127.231C20.8305 127.218 20.8615 127.209 20.894 127.206L27.9762 126.229C28.0094 126.225 28.0435 126.225 28.0767 126.229C28.1099 126.234 28.1414 126.243 28.1695 126.256C28.1975 126.269 28.2214 126.286 28.2399 126.305C28.2584 126.324 28.2711 126.346 28.2772 126.369L34.7522 148.368C34.7593 148.39 34.7598 148.413 34.7536 148.435C34.7475 148.458 34.7348 148.479 34.7165 148.497C34.6786 148.536 34.6201 148.564 34.5532 148.574L27.471 149.547L27.42 149.55ZM21.2461 127.513L27.6241 149.17L34.2062 148.264L27.8282 126.606L21.2461 127.513Z" fill="#096295"/>
<path d="M20.4072 151.29L42.0264 148.316L41.7012 147.212L20.082 150.185L20.4072 151.29Z" fill="white"/>
<path d="M20.4144 151.44C20.3656 151.44 20.318 151.43 20.2766 151.413C20.2195 151.387 20.1793 151.347 20.1643 151.301L19.8429 150.199C19.8355 150.177 19.8347 150.153 19.8408 150.131C19.8469 150.108 19.8596 150.086 19.8782 150.067C19.8968 150.048 19.9209 150.032 19.949 150.019C19.9771 150.006 20.0087 149.997 20.0419 149.993L41.6608 147.022C41.6935 147.018 41.7269 147.019 41.7594 147.023C41.7918 147.028 41.8225 147.037 41.8497 147.05C41.8784 147.062 41.9031 147.078 41.9225 147.096C41.9418 147.115 41.9552 147.136 41.9619 147.158L42.2834 148.264C42.2901 148.286 42.2902 148.309 42.2839 148.332C42.2775 148.354 42.2647 148.376 42.2462 148.395C42.2278 148.414 42.2039 148.43 42.1762 148.443C42.1484 148.456 42.1172 148.465 42.0844 148.47L20.4654 151.44H20.4144ZM20.4144 150.3L20.6389 151.06L41.7578 148.159L41.5333 147.396L20.4144 150.3Z" fill="#096295"/>
<path d="M14.0362 91.9974C13.9774 91.9974 13.9204 91.9836 13.8749 91.9581C13.8293 91.9327 13.798 91.8973 13.7862 91.858L8.00517 72.2087C7.99847 72.1862 7.99827 72.1631 8.00464 72.1406C8.01101 72.1181 8.02382 72.0967 8.0423 72.0776C8.06077 72.0585 8.08459 72.0421 8.11237 72.0293C8.14014 72.0165 8.17134 72.0075 8.20418 72.0029C8.27035 71.9946 8.33864 72.0041 8.39477 72.0295C8.4509 72.0548 8.49048 72.0941 8.5052 72.1389L14.2914 91.7882C14.298 91.8109 14.298 91.8343 14.2913 91.8569C14.2846 91.8796 14.2714 91.9012 14.2524 91.9203C14.2334 91.9394 14.209 91.9558 14.1807 91.9685C14.1523 91.9811 14.1206 91.9898 14.0873 91.994L14.0362 91.9974Z" fill="#096295"/>
<path d="M13.623 98.1973L18.0264 97.5941L14.3527 90.5538L13.0311 90.7386L13.623 98.1973Z" fill="#096295"/>
<path d="M13.623 98.3717C13.5584 98.3717 13.4963 98.3547 13.4497 98.3241C13.4031 98.2936 13.3756 98.2519 13.373 98.2078L12.776 90.7456C12.7734 90.7038 12.7924 90.6627 12.8297 90.6295C12.867 90.5964 12.9203 90.5733 12.9801 90.5643L14.3016 90.383C14.3624 90.374 14.4258 90.3808 14.4796 90.4021C14.5333 90.4234 14.5736 90.4576 14.5925 90.498L18.2662 97.5348C18.2813 97.5572 18.2891 97.5816 18.2891 97.6063C18.2891 97.631 18.2813 97.6554 18.2662 97.6778C18.2476 97.6996 18.2226 97.7187 18.1927 97.7337C18.1629 97.7487 18.1289 97.7593 18.0927 97.7649L13.6894 98.3682L13.623 98.3717ZM13.2965 90.8816L13.8628 97.9916L17.6896 97.4651L14.1843 90.7595L13.2965 90.8816Z" fill="#096295"/>
<path d="M20.5509 96.6235L10.7314 97.9729L11.9295 102.044L21.749 100.695L20.5509 96.6235Z" fill="white"/>
<path d="M11.9546 102.2C11.8955 102.201 11.838 102.187 11.7922 102.162C11.7465 102.136 11.7154 102.101 11.7045 102.061L10.5055 97.9916C10.4915 97.9459 10.5043 97.8983 10.5412 97.8591C10.5598 97.84 10.5839 97.8237 10.6119 97.8111C10.64 97.7985 10.6714 97.79 10.7045 97.7859L20.5266 96.4329C20.5934 96.4256 20.6617 96.4359 20.7176 96.4618C20.7736 96.4878 20.813 96.5273 20.8277 96.5724L22.0064 100.645C22.0184 100.691 22.0038 100.738 21.9656 100.776C21.9275 100.815 21.8688 100.842 21.8022 100.851L11.9852 102.2H11.9546ZM11.0565 98.0927L12.1536 101.82L21.4757 100.541L20.3532 96.8095L11.0565 98.0927Z" fill="#096295"/>
<path d="M20.399 135.745L33.2674 133.974L22.9553 99.3725L10.087 101.144L20.399 135.745Z" fill="#096295"/>
<path d="M20.399 135.92C20.3405 135.919 20.2839 135.905 20.2385 135.88C20.1932 135.854 20.1616 135.819 20.149 135.78L9.83699 101.179C9.8245 101.133 9.83918 101.085 9.87782 101.046C9.89495 101.027 9.91795 101.01 9.94524 100.998C9.97254 100.985 10.0035 100.977 10.036 100.973L22.9043 99.2016C22.9705 99.1933 23.0388 99.2028 23.0949 99.2281C23.1511 99.2535 23.1906 99.2927 23.2054 99.3376L33.5174 133.939C33.5314 133.985 33.5185 134.032 33.4817 134.072C33.463 134.091 33.439 134.107 33.4109 134.12C33.3828 134.132 33.3514 134.141 33.3184 134.145L20.4501 135.916L20.399 135.92ZM10.3881 101.28L20.5929 135.54L32.9612 133.838L22.7563 99.5782L10.3881 101.28Z" fill="#096295"/>
<path d="M20.408 135.725L33.2739 133.957L30.1938 123.49L17.3279 125.258L20.408 135.725Z" fill="white"/>
<path d="M20.3991 135.92C20.3495 135.92 20.3012 135.909 20.2613 135.888C20.2046 135.864 20.1642 135.825 20.1491 135.78L17.0876 125.319C17.081 125.297 17.0811 125.274 17.0878 125.251C17.0946 125.229 17.1079 125.207 17.1269 125.189C17.146 125.17 17.1703 125.154 17.1987 125.141C17.227 125.129 17.2586 125.121 17.2917 125.117L30.1549 123.346C30.2224 123.337 30.2921 123.347 30.3488 123.374C30.4041 123.398 30.4426 123.437 30.456 123.482L33.5174 133.943C33.5241 133.965 33.5242 133.988 33.5178 134.01C33.5113 134.032 33.4985 134.053 33.48 134.072C33.4614 134.091 33.4376 134.107 33.4099 134.12C33.3822 134.132 33.3511 134.141 33.3184 134.145L20.4501 135.916L20.3991 135.92ZM17.6182 125.403L20.5981 135.515L32.9664 133.814L29.9866 123.701L17.6182 125.403Z" fill="#096295"/>
<path d="M18.0816 127.83L30.9474 126.061L29.4416 120.944L16.5757 122.712L18.0816 127.83Z" fill="#096295"/>
<path d="M18.0774 128.022C18.0183 128.022 17.9608 128.009 17.9151 127.983C17.8693 127.958 17.8382 127.922 17.8274 127.882L16.2967 122.767C16.2846 122.721 16.2992 122.674 16.3374 122.635C16.3755 122.597 16.4341 122.57 16.5007 122.561L29.364 120.793C29.3968 120.788 29.4309 120.788 29.4641 120.792C29.4972 120.796 29.5288 120.805 29.5569 120.817C29.585 120.83 29.6091 120.846 29.6277 120.866C29.6463 120.885 29.659 120.906 29.665 120.929L31.1958 126.045C31.2025 126.067 31.2026 126.09 31.1963 126.113C31.1899 126.135 31.1771 126.157 31.1586 126.176C31.1401 126.195 31.1163 126.211 31.0886 126.224C31.0608 126.237 31.0296 126.246 30.9968 126.25L18.1284 128.018L18.0774 128.022ZM16.8681 122.868L18.2764 127.642L30.6396 125.943L29.2364 121.166L16.8681 122.868Z" fill="#096295"/>
<path d="M17.6612 126.401L30.527 124.632L29.8611 122.369L16.9952 124.137L17.6612 126.401Z" fill="#F0F0F0"/>
<path d="M17.654 126.596C17.5952 126.596 17.5382 126.582 17.4926 126.556C17.4471 126.531 17.4158 126.495 17.404 126.456L16.7407 124.193C16.7267 124.147 16.7395 124.1 16.7764 124.06C16.795 124.041 16.8191 124.025 16.8471 124.012C16.8752 124 16.9067 123.991 16.9397 123.987L29.8131 122.216C29.8794 122.208 29.9477 122.218 30.0031 122.244C30.0586 122.27 30.0967 122.31 30.1091 122.355L30.7775 124.618C30.7909 124.664 30.7781 124.711 30.7418 124.751C30.7022 124.788 30.6442 124.814 30.5785 124.824L17.7102 126.592L17.654 126.596ZM17.2918 124.294L17.8581 126.215L30.2213 124.517L29.6549 122.592L17.2918 124.294Z" fill="#096295"/>
<path d="M22.1185 112.065C22.0599 112.065 22.0033 112.05 21.958 112.025C21.9126 112 21.8811 111.965 21.8684 111.926C21.8618 111.903 21.8618 111.88 21.8685 111.857C21.8752 111.834 21.8884 111.813 21.9074 111.794C21.9264 111.774 21.9508 111.758 21.9791 111.745C22.0075 111.733 22.0393 111.724 22.0725 111.72L24.037 111.448C24.0698 111.443 24.1036 111.443 24.1365 111.448C24.1694 111.452 24.2008 111.461 24.2287 111.473C24.2567 111.486 24.2807 111.502 24.2995 111.521C24.3182 111.54 24.3313 111.562 24.338 111.584C24.3455 111.606 24.3461 111.63 24.3401 111.652C24.334 111.675 24.3213 111.697 24.3027 111.716C24.2841 111.735 24.2601 111.751 24.2319 111.764C24.2038 111.777 24.1722 111.786 24.139 111.79L22.1695 112.062L22.1185 112.065Z" fill="#096295"/>
<path d="M22.5677 113.589C22.5088 113.589 22.4518 113.575 22.4063 113.55C22.3607 113.524 22.3294 113.489 22.3176 113.45C22.3056 113.404 22.3202 113.357 22.3584 113.318C22.3965 113.28 22.4552 113.253 22.5218 113.244L24.4913 112.972C24.5576 112.964 24.6259 112.974 24.6813 113C24.7368 113.026 24.7748 113.066 24.7872 113.111C24.7946 113.134 24.7953 113.157 24.7892 113.179C24.783 113.201 24.7703 113.223 24.7516 113.242C24.733 113.261 24.7089 113.277 24.6808 113.289C24.6527 113.302 24.6212 113.31 24.5882 113.314L22.6187 113.585L22.5677 113.589Z" fill="#096295"/>
<path d="M23.0166 115.116C22.9831 115.118 22.9493 115.116 22.9172 115.109C22.8851 115.102 22.8553 115.091 22.8295 115.076C22.8037 115.062 22.7823 115.044 22.7667 115.023C22.7511 115.003 22.7415 114.981 22.7385 114.958C22.7355 114.935 22.7391 114.912 22.7491 114.89C22.7592 114.868 22.7754 114.847 22.797 114.83C22.8186 114.812 22.845 114.798 22.8748 114.787C22.9046 114.776 22.9372 114.77 22.9707 114.768L24.9402 114.499C24.9727 114.495 25.0063 114.494 25.0388 114.499C25.0714 114.503 25.1024 114.512 25.1299 114.525C25.1575 114.537 25.181 114.554 25.1993 114.573C25.2175 114.592 25.2301 114.613 25.2362 114.635C25.2429 114.658 25.243 114.681 25.2367 114.703C25.2303 114.726 25.2175 114.747 25.199 114.766C25.1805 114.785 25.1567 114.802 25.129 114.814C25.1012 114.827 25.07 114.836 25.0372 114.841L23.0676 115.113L23.0166 115.116Z" fill="#096295"/>
<path d="M23.4656 116.64C23.4068 116.64 23.3498 116.626 23.3042 116.601C23.2587 116.575 23.2274 116.54 23.2156 116.501C23.2036 116.455 23.2182 116.408 23.2563 116.369C23.2945 116.331 23.3531 116.304 23.4197 116.295L25.3892 116.023C25.4227 116.019 25.4572 116.019 25.4905 116.024C25.5239 116.028 25.5556 116.037 25.5838 116.051C25.612 116.064 25.6362 116.08 25.6549 116.1C25.6736 116.119 25.6865 116.141 25.6928 116.164C25.6992 116.187 25.6989 116.211 25.6919 116.233C25.685 116.256 25.6716 116.278 25.6524 116.297C25.6332 116.316 25.6086 116.333 25.5801 116.346C25.5516 116.358 25.5197 116.367 25.4862 116.372L23.5166 116.644L23.4656 116.64Z" fill="#096295"/>
<path d="M23.9147 118.164C23.8558 118.164 23.7988 118.15 23.7533 118.125C23.7077 118.099 23.6764 118.064 23.6646 118.024C23.6526 117.979 23.6672 117.932 23.7053 117.893C23.7435 117.855 23.8021 117.828 23.8687 117.819L25.8383 117.55C25.8708 117.546 25.9043 117.546 25.9369 117.55C25.9694 117.554 26.0004 117.563 26.028 117.576C26.0555 117.588 26.0791 117.605 26.0973 117.624C26.1156 117.643 26.1281 117.664 26.1342 117.686C26.1409 117.709 26.1411 117.732 26.1347 117.754C26.1284 117.777 26.1156 117.798 26.0971 117.817C26.0786 117.836 26.0548 117.853 26.027 117.866C25.9992 117.878 25.9681 117.887 25.9352 117.892L23.9657 118.16L23.9147 118.164Z" fill="#096295"/>
<path d="M24.3638 119.691C24.2962 119.695 24.2288 119.681 24.1767 119.651C24.1245 119.622 24.0918 119.579 24.0857 119.533C24.0797 119.486 24.1007 119.44 24.1442 119.405C24.1878 119.369 24.2502 119.347 24.3179 119.343L26.2823 119.071C26.3152 119.066 26.349 119.066 26.3819 119.07C26.4148 119.075 26.4461 119.083 26.4741 119.096C26.502 119.109 26.5261 119.125 26.5448 119.144C26.5636 119.163 26.5767 119.184 26.5834 119.207C26.5908 119.229 26.5915 119.252 26.5854 119.275C26.5794 119.298 26.5667 119.319 26.5481 119.338C26.5295 119.358 26.5054 119.374 26.4773 119.387C26.4491 119.399 26.4176 119.408 26.3844 119.412L24.4148 119.684L24.3638 119.691Z" fill="#096295"/>
<path d="M19.4807 102.849C19.4219 102.849 19.3649 102.835 19.3193 102.81C19.2737 102.784 19.2424 102.749 19.2307 102.71C19.2186 102.664 19.2332 102.617 19.2714 102.578C19.3095 102.54 19.3682 102.513 19.4348 102.504L21.4043 102.235C21.4368 102.231 21.4703 102.231 21.5029 102.235C21.5355 102.239 21.5665 102.248 21.594 102.261C21.6216 102.274 21.6451 102.29 21.6634 102.309C21.6816 102.328 21.6941 102.349 21.7002 102.371C21.7069 102.394 21.7071 102.417 21.7008 102.439C21.6944 102.462 21.6816 102.483 21.6631 102.502C21.6446 102.521 21.6208 102.538 21.5931 102.551C21.5653 102.563 21.5341 102.572 21.5013 102.577L19.5317 102.846L19.4807 102.849Z" fill="#096295"/>
<path d="M19.9296 104.376C19.862 104.38 19.7946 104.366 19.7425 104.336C19.6903 104.307 19.6576 104.264 19.6515 104.218C19.6455 104.171 19.6665 104.125 19.71 104.09C19.7536 104.054 19.816 104.032 19.8837 104.028L21.8532 103.756C21.9209 103.747 21.9909 103.757 22.0478 103.783C22.1048 103.81 22.144 103.851 22.1568 103.897C22.1697 103.943 22.1551 103.991 22.1164 104.03C22.0776 104.069 22.0179 104.096 21.9502 104.104L19.9806 104.376H19.9296Z" fill="#096295"/>
<path d="M20.3787 105.9C20.3199 105.9 20.2629 105.886 20.2173 105.861C20.1718 105.835 20.1404 105.8 20.1287 105.761C20.1167 105.715 20.1313 105.668 20.1694 105.629C20.2075 105.591 20.2662 105.564 20.3328 105.555L22.3023 105.286C22.3348 105.282 22.3684 105.282 22.4009 105.286C22.4335 105.291 22.4644 105.299 22.492 105.312C22.5195 105.325 22.5431 105.341 22.5614 105.36C22.5796 105.379 22.5921 105.4 22.5982 105.422C22.605 105.445 22.6051 105.468 22.5988 105.49C22.5924 105.513 22.5796 105.534 22.5611 105.553C22.5426 105.573 22.5188 105.589 22.4911 105.602C22.4633 105.615 22.4321 105.624 22.3992 105.628L20.4297 105.897L20.3787 105.9Z" fill="#096295"/>
<path d="M20.8277 107.427C20.7685 107.427 20.7113 107.412 20.6659 107.386C20.6204 107.36 20.5893 107.324 20.5777 107.284C20.5658 107.239 20.5805 107.192 20.6188 107.155C20.657 107.117 20.7156 107.091 20.7818 107.082L22.7513 106.81C22.7838 106.806 22.8174 106.806 22.8499 106.81C22.8825 106.814 22.9135 106.823 22.941 106.836C22.9686 106.848 22.9921 106.865 23.0104 106.884C23.0286 106.903 23.0412 106.924 23.0473 106.946C23.0547 106.969 23.0554 106.992 23.0493 107.015C23.0433 107.037 23.0306 107.059 23.012 107.078C22.9934 107.097 22.9693 107.114 22.9412 107.126C22.913 107.139 22.8814 107.148 22.8483 107.152L20.8787 107.424L20.8277 107.427Z" fill="#096295"/>
<path d="M21.2766 108.951C21.2178 108.951 21.1608 108.937 21.1152 108.912C21.0696 108.887 21.0383 108.851 21.0266 108.812C21.0145 108.766 21.0291 108.719 21.0673 108.68C21.1054 108.642 21.1641 108.615 21.2307 108.606L23.2002 108.334C23.2665 108.326 23.3348 108.336 23.3902 108.362C23.4457 108.388 23.4837 108.428 23.4961 108.474C23.5035 108.496 23.5042 108.519 23.4981 108.541C23.492 108.564 23.4792 108.585 23.4606 108.604C23.4419 108.623 23.4178 108.639 23.3897 108.651C23.3616 108.664 23.3301 108.672 23.2971 108.676L21.3276 108.948L21.2766 108.951Z" fill="#096295"/>
<path d="M21.7257 110.475C21.6669 110.475 21.6099 110.461 21.5643 110.436C21.5187 110.41 21.4874 110.375 21.4757 110.336C21.4636 110.29 21.4783 110.243 21.5164 110.204C21.5545 110.166 21.6132 110.139 21.6798 110.13L23.6493 109.861C23.717 109.853 23.787 109.863 23.8439 109.889C23.9009 109.915 23.9401 109.956 23.9529 110.003C23.9658 110.049 23.9512 110.097 23.9125 110.136C23.8737 110.174 23.8139 110.201 23.7463 110.21L21.7767 110.479L21.7257 110.475Z" fill="#096295"/>
<path d="M413.704 279.565H403.07C402.96 279.565 402.855 279.517 402.777 279.431C402.699 279.344 402.655 279.227 402.655 279.105V266.634H391.415C391.305 266.634 391.199 266.585 391.122 266.499C391.044 266.412 391 266.295 391 266.173V254.383C391 254.261 391.044 254.144 391.122 254.057C391.199 253.971 391.305 253.923 391.415 253.923H402.655V241.46C402.655 241.338 402.699 241.221 402.777 241.135C402.855 241.048 402.96 241 403.07 241H413.704C413.815 241 413.92 241.048 413.998 241.135C414.076 241.221 414.12 241.338 414.12 241.46V253.923H425.368C425.477 253.925 425.582 253.974 425.659 254.06C425.737 254.146 425.781 254.261 425.783 254.383V266.173C425.783 266.295 425.739 266.412 425.662 266.499C425.584 266.585 425.478 266.634 425.368 266.634H414.12V279.105C414.12 279.227 414.076 279.344 413.998 279.431C413.92 279.517 413.815 279.565 413.704 279.565ZM403.485 278.645H413.289V266.173C413.292 266.052 413.336 265.936 413.413 265.851C413.491 265.765 413.595 265.715 413.704 265.713H424.953V254.843H413.704C413.594 254.843 413.489 254.795 413.411 254.708C413.333 254.622 413.289 254.505 413.289 254.383V241.92H403.485V254.383C403.485 254.505 403.442 254.622 403.364 254.708C403.286 254.795 403.18 254.843 403.07 254.843H391.83V265.713H403.07C403.18 265.713 403.286 265.762 403.364 265.848C403.442 265.934 403.485 266.051 403.485 266.173V278.645Z" fill="#0A76B6"/>
<path d="M852.271 425.668H844.708C844.598 425.668 844.493 425.619 844.415 425.533C844.337 425.447 844.293 425.329 844.293 425.207V416.473H836.415C836.305 416.473 836.199 416.424 836.122 416.338C836.044 416.252 836 416.135 836 416.012V407.664C836 407.542 836.044 407.425 836.122 407.339C836.199 407.253 836.305 407.204 836.415 407.204H844.293V398.46C844.293 398.338 844.337 398.221 844.415 398.135C844.493 398.048 844.598 398 844.708 398H852.271C852.381 398 852.487 398.048 852.564 398.135C852.642 398.221 852.686 398.338 852.686 398.46V407.195H860.556C860.666 407.195 860.771 407.243 860.849 407.33C860.927 407.416 860.971 407.533 860.971 407.655V416.031C860.971 416.153 860.927 416.27 860.849 416.356C860.771 416.443 860.666 416.491 860.556 416.491H852.719V425.226C852.717 425.288 852.704 425.349 852.68 425.405C852.656 425.461 852.622 425.512 852.58 425.553C852.538 425.594 852.489 425.626 852.436 425.645C852.383 425.665 852.327 425.673 852.271 425.668ZM845.123 424.747H851.889V416.012C851.889 415.89 851.933 415.773 852.011 415.687C852.088 415.601 852.194 415.552 852.304 415.552H860.174V408.097H852.304C852.194 408.097 852.088 408.048 852.011 407.962C851.933 407.876 851.889 407.759 851.889 407.637V398.902H845.157V407.664C845.154 407.786 845.11 407.901 845.033 407.987C844.955 408.073 844.851 408.122 844.741 408.125H836.863V415.58H844.741C844.851 415.582 844.955 415.631 845.033 415.717C845.11 415.803 845.154 415.919 845.157 416.04L845.123 424.747Z" fill="#096295"/>
<path d="M654.271 170.668H646.708C646.598 170.668 646.493 170.619 646.415 170.533C646.337 170.447 646.293 170.329 646.293 170.207V161.473H638.415C638.305 161.473 638.199 161.424 638.122 161.338C638.044 161.252 638 161.135 638 161.012V152.664C638 152.542 638.044 152.425 638.122 152.339C638.199 152.253 638.305 152.204 638.415 152.204H646.293V143.46C646.293 143.338 646.337 143.221 646.415 143.135C646.493 143.048 646.598 143 646.708 143H654.271C654.381 143 654.487 143.048 654.564 143.135C654.642 143.221 654.686 143.338 654.686 143.46V152.195H662.556C662.666 152.195 662.771 152.243 662.849 152.33C662.927 152.416 662.971 152.533 662.971 152.655V161.031C662.971 161.153 662.927 161.27 662.849 161.356C662.771 161.443 662.666 161.491 662.556 161.491H654.719V170.226C654.717 170.288 654.704 170.349 654.68 170.405C654.656 170.461 654.622 170.512 654.58 170.553C654.538 170.594 654.489 170.626 654.436 170.645C654.383 170.665 654.327 170.673 654.271 170.668ZM647.123 169.747H653.889V161.012C653.889 160.89 653.933 160.773 654.011 160.687C654.088 160.601 654.194 160.552 654.304 160.552H662.174V153.097H654.304C654.194 153.097 654.088 153.048 654.011 152.962C653.933 152.876 653.889 152.759 653.889 152.637V143.902H647.157V152.664C647.154 152.786 647.11 152.901 647.033 152.987C646.955 153.073 646.851 153.122 646.741 153.125H638.863V160.58H646.741C646.851 160.582 646.955 160.631 647.033 160.717C647.11 160.803 647.154 160.919 647.157 161.04L647.123 169.747Z" fill="#096295"/>
<path d="M247.391 174.624C247.354 174.632 247.316 174.632 247.278 174.624L227.484 166.71C227.402 166.677 227.334 166.609 227.297 166.521C227.26 166.433 227.256 166.332 227.285 166.24L230.21 157.233C230.224 157.188 230.246 157.147 230.274 157.112C230.302 157.076 230.337 157.048 230.375 157.027C230.458 156.991 230.55 156.991 230.633 157.027L250.421 164.927C250.462 164.943 250.5 164.967 250.533 165C250.566 165.032 250.592 165.071 250.61 165.115C250.629 165.159 250.639 165.207 250.641 165.255C250.642 165.303 250.635 165.352 250.619 165.397L247.702 174.382C247.677 174.452 247.635 174.512 247.579 174.555C247.524 174.598 247.458 174.622 247.391 174.624ZM228.02 166.138L247.206 173.788L249.898 165.477L230.712 157.827L228.02 166.138Z" fill="#096295"/>
<path d="M230.309 167.187C230.256 167.186 230.203 167.172 230.156 167.145C230.109 167.118 230.069 167.079 230.038 167.03C230.008 166.982 229.988 166.927 229.981 166.868C229.974 166.81 229.98 166.75 229.998 166.695L232.704 158.348C232.735 158.259 232.797 158.187 232.875 158.148C232.954 158.109 233.043 158.105 233.124 158.137C233.205 158.17 233.271 158.236 233.309 158.322C233.347 158.408 233.353 158.506 233.326 158.597L230.62 166.937C230.598 167.009 230.556 167.072 230.5 167.117C230.445 167.162 230.378 167.186 230.309 167.187Z" fill="#096295"/>
<path d="M233.974 168.646H233.862C233.779 168.613 233.712 168.545 233.675 168.457C233.638 168.369 233.633 168.268 233.663 168.177L236.376 159.829C236.406 159.738 236.467 159.663 236.546 159.622C236.626 159.581 236.717 159.576 236.799 159.609C236.882 159.642 236.949 159.71 236.986 159.798C237.023 159.886 237.027 159.987 236.998 160.079L234.285 168.426C234.259 168.493 234.215 168.55 234.16 168.589C234.104 168.628 234.04 168.648 233.974 168.646Z" fill="#096295"/>
<path d="M237.646 170.106C237.609 170.113 237.571 170.113 237.533 170.106C237.45 170.071 237.383 170.002 237.344 169.913C237.306 169.824 237.3 169.723 237.328 169.629L240.041 161.289C240.055 161.243 240.077 161.201 240.106 161.165C240.135 161.129 240.171 161.1 240.21 161.079C240.25 161.058 240.293 161.047 240.336 161.045C240.38 161.043 240.423 161.052 240.464 161.069C240.547 161.102 240.614 161.17 240.651 161.258C240.688 161.346 240.692 161.447 240.663 161.538L237.957 169.879C237.932 169.947 237.888 170.005 237.833 170.045C237.777 170.086 237.712 170.107 237.646 170.106Z" fill="#096295"/>
<path d="M241.311 171.573C241.274 171.581 241.236 171.581 241.199 171.573C241.157 171.557 241.119 171.533 241.087 171.5C241.054 171.468 241.028 171.429 241.009 171.385C240.991 171.341 240.98 171.294 240.979 171.245C240.977 171.197 240.985 171.149 241 171.104L243.706 162.756C243.736 162.665 243.797 162.59 243.877 162.549C243.956 162.508 244.047 162.503 244.129 162.536C244.171 162.552 244.209 162.576 244.241 162.608C244.274 162.641 244.3 162.68 244.319 162.724C244.337 162.768 244.348 162.815 244.349 162.864C244.351 162.912 244.344 162.96 244.328 163.005L241.622 171.353C241.594 171.419 241.551 171.474 241.495 171.513C241.44 171.552 241.376 171.573 241.311 171.573Z" fill="#096295"/>
<path d="M244.976 173.033C244.939 173.04 244.901 173.04 244.864 173.033C244.781 173 244.714 172.932 244.677 172.843C244.64 172.755 244.635 172.655 244.665 172.563L247.371 164.223C247.403 164.134 247.464 164.063 247.543 164.023C247.621 163.984 247.71 163.98 247.791 164.013C247.872 164.045 247.939 164.111 247.976 164.197C248.014 164.283 248.02 164.382 247.993 164.473L245.287 172.813C245.262 172.881 245.219 172.938 245.163 172.978C245.108 173.017 245.042 173.036 244.976 173.033Z" fill="#096295"/>
<path d="M231.202 229.807C230.203 229.807 229.211 229.613 228.271 229.235L210.713 222.23C208.559 221.367 206.801 219.592 205.825 217.294C204.849 214.997 204.734 212.364 205.506 209.973L215.754 178.431C215.77 178.376 215.797 178.326 215.834 178.285L227.411 166.233C227.457 166.186 227.513 166.154 227.573 166.14C227.634 166.126 227.697 166.13 227.755 166.152L247.371 173.979C247.429 174.002 247.48 174.042 247.519 174.095C247.557 174.148 247.582 174.212 247.589 174.28L249.574 191.752C249.587 191.807 249.587 191.866 249.574 191.921L239.333 223.462C238.729 225.318 237.625 226.922 236.171 228.057C234.716 229.192 232.981 229.803 231.202 229.807ZM216.363 178.783L206.141 210.222C205.427 212.43 205.532 214.862 206.434 216.984C207.336 219.107 208.961 220.745 210.951 221.54L228.509 228.545C229.495 228.945 230.542 229.124 231.59 229.072C232.638 229.02 233.666 228.738 234.615 228.243C235.564 227.748 236.416 227.049 237.12 226.187C237.824 225.325 238.367 224.316 238.718 223.22L248.932 191.745L246.948 174.58L227.735 166.9L216.363 178.783Z" fill="#096295"/>
<path d="M236.369 218.394C236.332 218.401 236.294 218.401 236.257 218.394L210.587 208.124C210.506 208.09 210.439 208.021 210.402 207.934C210.384 207.89 210.375 207.842 210.375 207.794C210.375 207.746 210.384 207.699 210.402 207.655L219.148 180.691C219.178 180.599 219.239 180.525 219.319 180.483C219.398 180.442 219.489 180.438 219.571 180.471L245.241 190.74C245.282 190.755 245.32 190.78 245.353 190.812C245.385 190.845 245.412 190.884 245.43 190.928C245.449 190.972 245.459 191.019 245.461 191.067C245.462 191.116 245.455 191.164 245.439 191.209L236.68 218.181C236.651 218.245 236.607 218.299 236.552 218.337C236.497 218.374 236.434 218.394 236.369 218.394ZM211.123 207.589L236.171 217.587L244.692 191.312L219.651 181.321L211.123 207.589Z" fill="#096295"/>
<path d="M944.391 241.624C944.354 241.632 944.316 241.632 944.279 241.624L924.484 233.71C924.402 233.677 924.334 233.609 924.297 233.521C924.26 233.433 924.256 233.332 924.286 233.24L927.21 224.233C927.224 224.188 927.246 224.147 927.274 224.112C927.302 224.076 927.337 224.048 927.375 224.027C927.458 223.991 927.55 223.991 927.633 224.027L947.421 231.927C947.462 231.943 947.5 231.967 947.533 232C947.566 232.032 947.592 232.071 947.61 232.115C947.629 232.159 947.639 232.207 947.641 232.255C947.642 232.303 947.635 232.352 947.619 232.397L944.702 241.382C944.677 241.452 944.635 241.512 944.579 241.555C944.524 241.598 944.459 241.622 944.391 241.624ZM925.02 233.138L944.206 240.788L946.898 232.477L927.713 224.827L925.02 233.138Z" fill="#096295"/>
<path d="M927.309 234.187C927.256 234.186 927.203 234.172 927.156 234.145C927.109 234.118 927.069 234.079 927.038 234.03C927.008 233.982 926.988 233.927 926.981 233.868C926.974 233.81 926.98 233.75 926.998 233.695L929.704 225.348C929.735 225.259 929.797 225.187 929.875 225.148C929.954 225.109 930.043 225.105 930.124 225.137C930.205 225.17 930.271 225.236 930.309 225.322C930.347 225.408 930.353 225.506 930.326 225.597L927.62 233.937C927.598 234.009 927.556 234.072 927.5 234.117C927.445 234.162 927.378 234.186 927.309 234.187Z" fill="#096295"/>
<path d="M930.974 235.646H930.862C930.779 235.613 930.712 235.545 930.675 235.457C930.637 235.369 930.633 235.268 930.663 235.177L933.376 226.829C933.405 226.738 933.467 226.663 933.546 226.622C933.626 226.581 933.717 226.576 933.799 226.609C933.881 226.642 933.949 226.71 933.986 226.798C934.023 226.886 934.027 226.987 933.997 227.079L931.285 235.426C931.259 235.493 931.215 235.55 931.16 235.589C931.104 235.628 931.04 235.648 930.974 235.646Z" fill="#096295"/>
<path d="M934.646 237.106C934.609 237.113 934.571 237.113 934.533 237.106C934.45 237.071 934.383 237.002 934.344 236.913C934.306 236.824 934.3 236.723 934.328 236.629L937.041 228.289C937.055 228.243 937.077 228.201 937.106 228.165C937.135 228.129 937.171 228.1 937.21 228.079C937.25 228.058 937.293 228.047 937.336 228.045C937.38 228.043 937.423 228.052 937.464 228.069C937.547 228.102 937.614 228.17 937.651 228.258C937.688 228.346 937.692 228.447 937.663 228.538L934.957 236.879C934.932 236.947 934.888 237.005 934.833 237.045C934.777 237.086 934.712 237.107 934.646 237.106Z" fill="#096295"/>
<path d="M938.311 238.573C938.274 238.581 938.236 238.581 938.199 238.573C938.157 238.557 938.119 238.533 938.087 238.5C938.054 238.468 938.028 238.429 938.009 238.385C937.991 238.341 937.98 238.294 937.979 238.245C937.977 238.197 937.984 238.149 938 238.104L940.706 229.756C940.736 229.665 940.797 229.59 940.877 229.549C940.956 229.508 941.047 229.503 941.129 229.536C941.171 229.552 941.209 229.576 941.241 229.608C941.274 229.641 941.3 229.68 941.319 229.724C941.337 229.768 941.348 229.815 941.349 229.864C941.351 229.912 941.344 229.96 941.328 230.005L938.622 238.353C938.594 238.419 938.55 238.474 938.495 238.513C938.44 238.552 938.376 238.573 938.311 238.573Z" fill="#096295"/>
<path d="M941.976 240.033C941.939 240.04 941.901 240.04 941.864 240.033C941.781 240 941.714 239.932 941.677 239.843C941.64 239.755 941.635 239.655 941.665 239.563L944.371 231.223C944.403 231.134 944.464 231.063 944.543 231.023C944.621 230.984 944.71 230.98 944.791 231.013C944.872 231.045 944.939 231.111 944.976 231.197C945.014 231.283 945.02 231.382 944.993 231.473L942.287 239.813C942.262 239.881 942.219 239.938 942.163 239.978C942.108 240.017 942.042 240.036 941.976 240.033Z" fill="#096295"/>
<path d="M928.202 296.807C927.203 296.807 926.211 296.613 925.271 296.235L907.713 289.23C905.559 288.367 903.801 286.592 902.825 284.294C901.849 281.997 901.734 279.364 902.506 276.973L912.754 245.431C912.77 245.376 912.797 245.326 912.834 245.285L924.411 233.233C924.457 233.186 924.513 233.154 924.573 233.14C924.634 233.126 924.697 233.13 924.755 233.152L944.371 240.979C944.429 241.002 944.48 241.042 944.519 241.095C944.557 241.148 944.582 241.212 944.589 241.28L946.574 258.752C946.587 258.807 946.587 258.866 946.574 258.921L936.333 290.462C935.729 292.318 934.625 293.922 933.171 295.057C931.716 296.192 929.981 296.803 928.202 296.807ZM913.363 245.783L903.141 277.222C902.427 279.43 902.532 281.862 903.434 283.984C904.336 286.107 905.961 287.745 907.951 288.54L925.509 295.545C926.495 295.945 927.542 296.124 928.59 296.072C929.638 296.02 930.666 295.738 931.615 295.243C932.564 294.748 933.416 294.049 934.12 293.187C934.824 292.325 935.367 291.316 935.718 290.22L945.932 258.745L943.948 241.58L924.735 233.9L913.363 245.783Z" fill="#096295"/>
<path d="M933.369 285.394C933.332 285.401 933.294 285.401 933.256 285.394L907.587 275.124C907.505 275.09 907.439 275.021 907.402 274.934C907.384 274.89 907.375 274.842 907.375 274.794C907.375 274.746 907.384 274.699 907.402 274.655L916.148 247.691C916.178 247.599 916.239 247.525 916.319 247.483C916.398 247.442 916.489 247.438 916.571 247.471L942.241 257.74C942.282 257.755 942.32 257.78 942.353 257.812C942.385 257.845 942.412 257.884 942.43 257.928C942.449 257.972 942.459 258.019 942.461 258.067C942.462 258.116 942.455 258.164 942.439 258.209L933.68 285.181C933.651 285.245 933.607 285.299 933.552 285.337C933.497 285.374 933.434 285.394 933.369 285.394ZM908.123 274.589L933.17 284.587L941.692 258.312L916.651 248.321L908.123 274.589Z" fill="#096295"/>
<path d="M46.1166 247.117C45.2033 247.118 44.3158 246.781 43.594 246.161C42.8722 245.54 42.357 244.671 42.1296 243.691C41.9022 242.71 41.9755 241.673 42.338 240.744C42.7005 239.814 43.3316 239.045 44.1319 238.557L51.5746 234.039C51.6559 234.006 51.7448 234.006 51.826 234.039C51.91 234.067 51.981 234.13 52.0245 234.215L55.6566 241.55C55.6775 241.592 55.6907 241.639 55.6954 241.687C55.7001 241.735 55.6962 241.783 55.6839 241.83C55.6716 241.876 55.6512 241.919 55.6238 241.957C55.5964 241.994 55.5626 242.026 55.5243 242.049L48.0815 246.567C47.4793 246.933 46.8031 247.122 46.1166 247.117ZM51.6011 234.86L44.4494 239.203C44.028 239.428 43.6524 239.747 43.3455 240.139C43.0385 240.53 42.8065 240.987 42.6636 241.481C42.5208 241.975 42.47 242.496 42.5143 243.013C42.5587 243.53 42.6973 244.031 42.9217 244.486C43.1461 244.941 43.4517 245.342 43.8198 245.662C44.188 245.982 44.611 246.216 45.0633 246.35C45.5155 246.484 45.9875 246.514 46.4507 246.439C46.9138 246.364 47.3583 246.186 47.7573 245.914L54.9156 241.55L51.6011 234.86Z" fill="#096295"/>
<path d="M55.3654 242.085C55.3349 242.092 55.3034 242.092 55.2729 242.085C55.2309 242.072 55.1918 242.05 55.1577 242.019C55.1237 241.989 55.0953 241.952 55.0743 241.909L51.4423 234.574C51.4017 234.488 51.3928 234.388 51.4175 234.295C51.4422 234.202 51.4985 234.123 51.5746 234.075L59.0174 229.557C59.975 228.978 61.1003 228.844 62.1468 229.184C63.1934 229.524 64.0759 230.309 64.6011 231.369C65.1228 232.43 65.2437 233.678 64.9374 234.838C64.6312 235.999 63.9227 236.977 62.967 237.56L55.5243 242.078C55.4727 242.095 55.4181 242.098 55.3654 242.085ZM52.1832 234.508L55.4911 241.22L62.6428 236.877C63.445 236.389 64.0398 235.569 64.2966 234.595C64.5533 233.621 64.4511 232.574 64.0123 231.684C63.571 230.796 62.8306 230.138 61.9529 229.853C61.0752 229.569 60.1316 229.681 59.3283 230.166L52.1832 234.508Z" fill="#096295"/>
<path d="M115.434 125.583C115.345 125.583 115.259 125.543 115.196 125.473L109.302 118.703C108.544 117.827 108.13 116.654 108.153 115.44C108.175 114.227 108.631 113.073 109.421 112.233C110.21 111.392 111.269 110.934 112.363 110.959C113.457 110.984 114.498 111.489 115.256 112.365L121.15 119.135C121.21 119.204 121.244 119.296 121.243 119.392C121.239 119.492 121.201 119.586 121.137 119.656L115.699 125.48C115.664 125.517 115.622 125.545 115.577 125.563C115.531 125.581 115.483 125.587 115.434 125.583ZM112.259 111.705C111.582 111.708 110.921 111.932 110.358 112.348C109.794 112.763 109.353 113.353 109.089 114.044C108.825 114.735 108.75 115.497 108.872 116.235C108.995 116.973 109.309 117.655 109.778 118.196L115.441 124.695L120.409 119.377L114.773 112.878C114.459 112.515 114.084 112.224 113.668 112.023C113.252 111.821 112.805 111.713 112.351 111.705H112.259Z" fill="#096295"/>
<path d="M124.035 133.63C123.482 133.63 122.934 133.506 122.425 133.267C121.916 133.027 121.455 132.677 121.071 132.236L115.176 125.473C115.117 125.401 115.084 125.307 115.084 125.209C115.086 125.112 115.121 125.02 115.183 124.952L120.628 119.128C120.659 119.094 120.695 119.066 120.735 119.048C120.776 119.029 120.819 119.019 120.863 119.019C120.906 119.019 120.95 119.029 120.99 119.048C121.03 119.066 121.067 119.094 121.098 119.128L127.012 125.876C127.581 126.521 127.965 127.337 128.115 128.223C128.265 129.109 128.176 130.025 127.857 130.855C127.539 131.684 127.006 132.39 126.325 132.884C125.645 133.378 124.848 133.638 124.035 133.63ZM115.884 125.224L121.547 131.73C122.021 132.281 122.632 132.664 123.303 132.828C123.974 132.993 124.673 132.931 125.312 132.653C125.952 132.374 126.501 131.89 126.891 131.263C127.281 130.636 127.494 129.895 127.502 129.133C127.512 128.631 127.432 128.132 127.266 127.664C127.1 127.197 126.852 126.771 126.536 126.412L120.866 119.905L115.884 125.224Z" fill="#096295"/>
<path d="M565.752 382.625C565.841 382.625 565.927 382.585 565.99 382.515L571.884 375.744C572.642 374.869 573.056 373.696 573.033 372.482C573.011 371.269 572.555 370.115 571.765 369.275C570.976 368.434 569.917 367.976 568.823 368.001C567.729 368.026 566.688 368.531 565.93 369.407L560.035 376.177C559.976 376.246 559.942 376.338 559.943 376.434C559.947 376.534 559.985 376.628 560.049 376.698L565.487 382.522C565.522 382.559 565.564 382.587 565.609 382.605C565.655 382.622 565.703 382.629 565.752 382.625ZM568.927 368.747C569.604 368.75 570.265 368.974 570.828 369.39C571.392 369.805 571.833 370.395 572.097 371.086C572.361 371.777 572.436 372.539 572.314 373.277C572.191 374.015 571.876 374.697 571.408 375.238L565.745 381.737L560.776 376.419L566.413 369.92C566.727 369.557 567.102 369.266 567.518 369.065C567.933 368.863 568.381 368.755 568.834 368.747H568.927Z" fill="#096295"/>
<path d="M557.151 390.672C557.704 390.672 558.252 390.548 558.761 390.309C559.27 390.069 559.73 389.719 560.115 389.278L566.01 382.515C566.069 382.443 566.102 382.348 566.102 382.251C566.1 382.154 566.065 382.062 566.003 381.994L560.558 376.17C560.527 376.136 560.491 376.108 560.45 376.09C560.41 376.071 560.367 376.061 560.323 376.061C560.28 376.061 560.236 376.071 560.196 376.09C560.156 376.108 560.119 376.136 560.088 376.17L554.174 382.918C553.605 383.563 553.221 384.379 553.071 385.265C552.921 386.151 553.01 387.067 553.329 387.896C553.647 388.726 554.18 389.432 554.861 389.926C555.541 390.42 556.338 390.679 557.151 390.672ZM565.302 382.265L559.639 388.772C559.165 389.323 558.554 389.706 557.883 389.87C557.212 390.034 556.513 389.973 555.873 389.695C555.234 389.416 554.685 388.932 554.295 388.305C553.905 387.678 553.692 386.937 553.684 386.175C553.674 385.673 553.754 385.174 553.92 384.706C554.085 384.239 554.334 383.813 554.65 383.454L560.32 376.947L565.302 382.265Z" fill="#096295"/>
<path d="M395.283 92.6249C395.239 92.6233 395.196 92.6121 395.156 92.5919C395.117 92.5718 395.081 92.5431 395.051 92.5075L389.15 85.7445C388.392 84.869 387.979 83.6956 388.001 82.4823C388.023 81.269 388.479 80.1153 389.269 79.2748C390.058 78.4344 391.117 77.9762 392.211 78.001C393.305 78.0257 394.346 78.5314 395.104 79.4069L400.999 86.1773C401.059 86.2462 401.092 86.3383 401.091 86.434C401.089 86.5306 401.054 86.6226 400.992 86.6907L395.547 92.5222C395.513 92.5598 395.471 92.5884 395.425 92.6062C395.38 92.6239 395.331 92.6303 395.283 92.6249ZM392.114 78.7467C391.436 78.7468 390.774 78.9678 390.209 79.3822C389.644 79.7965 389.201 80.3859 388.936 81.077C388.671 81.7681 388.595 82.5304 388.718 83.269C388.841 84.0076 389.156 84.6899 389.626 85.231L395.296 91.73L400.258 86.412L394.595 79.9057C393.959 79.1767 393.088 78.7572 392.173 78.7394L392.114 78.7467Z" fill="#096295"/>
<path d="M403.903 100.664C403.351 100.666 402.805 100.545 402.297 100.306C401.788 100.068 401.329 99.7183 400.946 99.2779L395.051 92.5075C395.019 92.4748 394.994 92.435 394.977 92.3908C394.96 92.3466 394.951 92.2989 394.952 92.2508C394.956 92.1534 394.994 92.0615 395.058 91.9941L400.496 86.1259C400.527 86.0915 400.563 86.0643 400.604 86.0456C400.644 86.027 400.687 86.0174 400.731 86.0174C400.774 86.0174 400.818 86.027 400.858 86.0456C400.898 86.0643 400.935 86.0915 400.966 86.1259L406.86 92.889C407.422 93.5321 407.8 94.3445 407.948 95.2246C408.096 96.1048 408.006 97.0136 407.691 97.8377C407.375 98.6618 406.848 99.3645 406.174 99.8581C405.5 100.352 404.711 100.614 403.903 100.613V100.664ZM395.766 92.2655L401.429 98.7718C402.069 99.4825 402.935 99.8859 403.841 99.8951C404.747 99.9044 405.619 99.5186 406.271 98.8211C406.923 98.1235 407.301 97.17 407.325 96.166C407.348 95.1621 407.015 94.188 406.397 93.4538L400.734 86.9475L395.766 92.2655Z" fill="#096295"/>
<path d="M833.567 8.09518L835.148 0.720798L847.834 0.506616L849.686 7.8348L849.76 8.12826L850.055 8.19858C852.869 8.87059 855.577 9.90523 858.109 11.2749L858.367 11.4148L858.615 11.2567L865.112 7.1165L874.226 15.685L870.219 22.1137L870.054 22.3778L870.218 22.6421C871.719 25.0569 872.88 27.6558 873.672 30.3696L873.757 30.6595L874.053 30.7195L881.641 32.2581L881.86 44.566L874.335 46.3689L874.041 46.4393L873.967 46.732C873.272 49.4664 872.205 52.0985 870.794 54.5588L870.639 54.8288L870.813 55.0869L875.055 61.384L866.247 70.2488L859.615 66.3372L859.361 66.1874L859.107 66.3373C856.628 67.7996 853.958 68.9306 851.169 69.6995L850.876 69.7801L850.813 70.0767L849.232 77.4511L836.534 77.6653L834.694 70.3503L834.62 70.0568L834.326 69.9861C831.507 69.3098 828.794 68.2709 826.259 66.8972L826 66.7569L825.751 66.9154L819.268 71.0553L810.141 62.4867L814.149 56.0582L814.313 55.7947L814.149 55.5306C812.656 53.1179 811.499 50.5233 810.708 47.8149L810.623 47.525L810.327 47.465L802.739 45.9264L802.507 33.6066L810.044 31.8159L810.34 31.7458L810.414 31.4517C811.104 28.7138 812.166 26.0774 813.574 23.6122L813.727 23.3427L813.554 23.0852L809.325 16.8002L818.121 7.92318L824.766 11.8349L825.52 12.2786V11.6794C827.931 10.2949 830.516 9.21689 833.212 8.47235L833.504 8.39163L833.567 8.09518ZM831.853 28.5246C829.796 30.5977 828.417 33.2191 827.89 36.0579C827.364 38.8968 827.715 41.8235 828.898 44.4675C830.081 47.1112 832.043 49.3521 834.532 50.9085C837.022 52.4648 839.928 53.2674 842.885 53.2163C845.841 53.1651 848.717 52.2625 851.148 50.6208C853.58 48.9791 855.458 46.6716 856.544 43.9883C857.63 41.3049 857.874 38.3678 857.244 35.549C856.614 32.7304 855.139 30.1587 853.009 28.1582C851.594 26.8297 849.925 25.786 848.096 25.086C846.268 24.3861 844.317 24.0435 842.353 24.0775C840.389 24.1115 838.452 24.5214 836.65 25.2841C834.848 26.0469 833.218 27.1478 831.853 28.5246Z" stroke="#096295"/>
<path d="M13.0997 380.526L18.1833 383.526V384.139L18.9374 383.694C20.9427 382.51 23.1034 381.595 25.361 380.974L25.6538 380.894L25.7173 380.597L26.9829 374.678L37.1379 374.507L38.6272 380.376L38.7016 380.669L38.9957 380.739C41.2742 381.283 43.4665 382.124 45.513 383.239L45.7719 383.38L46.0207 383.222L51.2464 379.895L58.5424 386.751L55.3318 391.908L55.1674 392.172L55.3315 392.436C56.5447 394.388 57.4812 396.491 58.1161 398.687L58.2002 398.978L58.4972 399.038L64.5856 400.271L64.769 410.121L58.7257 411.571L58.4317 411.642L58.3576 411.935C57.7983 414.148 56.9376 416.279 55.7982 418.27L55.6442 418.54L55.8171 418.797L59.2145 423.861L52.169 430.959L46.8238 427.799L46.5704 427.65L46.3165 427.798C44.306 428.977 42.1426 429.889 39.8836 430.511L39.5908 430.592L39.5274 430.889L38.2617 436.807L28.1096 436.986L26.6659 431.121L26.5931 430.825L26.2967 430.754C24.0192 430.209 21.827 429.371 19.7782 428.261L19.5199 428.121L19.272 428.279L14.0462 431.598L6.74904 424.741L9.94529 419.577L10.1086 419.313L9.9446 419.05C8.729 417.097 7.78981 414.994 7.1522 412.798L7.06783 412.507L6.77125 412.447L0.683152 411.215L0.507093 401.365L6.5429 399.914L6.83694 399.844L6.91091 399.551C7.46938 397.337 8.33264 395.206 9.4775 393.216L9.63282 392.946L9.45904 392.688L6.05431 387.624L13.0997 380.526ZM24.1596 397.1C22.4749 398.796 21.3435 400.942 20.9107 403.267C20.4778 405.592 20.7634 407.99 21.7306 410.156C22.6977 412.322 24.3023 414.158 26.3392 415.434C28.376 416.709 30.7544 417.368 33.1738 417.327C35.5932 417.287 37.9472 416.549 39.9379 415.206C41.9288 413.863 43.4677 411.974 44.3578 409.777C45.248 407.579 45.4487 405.173 44.934 402.864C44.4193 400.555 43.2128 398.449 41.4694 396.81C39.1323 394.613 35.9968 393.411 32.7532 393.466C29.5095 393.52 26.418 394.826 24.1596 397.1Z" stroke="#096295"/>
<path d="M186.053 41.1815L189.811 43.4155V44.028L190.566 43.5787C192.093 42.6706 193.739 41.9687 195.458 41.492L195.75 41.4109L195.813 41.114L196.764 36.6361L204.355 36.5067L205.474 40.9476L205.548 41.2409L205.842 41.3117C207.577 41.7292 209.246 42.3744 210.804 43.2298L211.065 43.3728L211.315 43.2124L215.239 40.6952L220.694 45.8595L218.283 49.761L218.12 50.0235L218.282 50.2863C219.206 51.7845 219.919 53.3978 220.403 55.0826L220.486 55.374L220.783 55.4346L225.356 56.3673L225.493 63.787L220.954 64.8842L220.66 64.9553L220.587 65.2485C220.161 66.9466 219.505 68.5814 218.638 70.1097L218.486 70.3775L218.656 70.6337L221.208 74.4655L215.941 79.8123L211.927 77.4215L211.672 77.2697L211.417 77.4205C209.886 78.3247 208.238 79.0248 206.518 79.502L206.225 79.5832L206.162 79.88L205.212 84.3582L197.623 84.493L196.539 80.0558L196.467 79.7598L196.171 79.6884C194.436 79.2702 192.767 78.6269 191.207 77.7756L190.947 77.6338L190.698 77.7933L186.773 80.3051L181.318 75.1398L183.718 71.2319L183.879 70.9694L183.718 70.7074C182.792 69.2093 182.077 67.5959 181.591 65.9109L181.507 65.62L181.211 65.5595L176.639 64.6268L176.507 57.207L181.04 56.1098L181.334 56.0386L181.407 55.7453C181.833 54.0467 182.49 52.4119 183.362 50.8854L183.515 50.617L183.343 50.3599L180.786 46.5282L186.053 41.1815ZM194.421 53.7477C193.115 55.0731 192.237 56.7498 191.902 58.5662C191.566 60.3827 191.788 62.2557 192.538 63.9481C193.288 65.6404 194.532 67.075 196.112 68.0718C197.691 69.0685 199.536 69.583 201.412 69.5514C203.289 69.5198 205.114 68.9433 206.658 67.8939C208.202 66.8444 209.396 65.3685 210.086 63.6518C210.776 61.935 210.932 60.0555 210.533 58.2516C210.134 56.4476 209.198 54.8017 207.846 53.5212C206.034 51.8046 203.602 50.8658 201.086 50.9082C198.57 50.9506 196.173 51.9708 194.421 53.7477Z" stroke="#096295"/>
</g>
</svg>
