<svg width="18" height="18" viewBox="0 0 18 18" fill="none" xmlns="http://www.w3.org/2000/svg">
<path d="M16 16H14.575L4.8 6.225L6.225 4.8L16 14.575V16ZM18 18V13.75L4.8 0.575C4.6 0.391667 4.37917 0.25 4.1375 0.15C3.89583 0.05 3.64167 0 3.375 0C3.10833 0 2.85 0.05 2.6 0.15C2.35 0.25 2.13333 0.4 1.95 0.6L0.574999 2C0.374999 2.18333 0.229166 2.4 0.137499 2.65C0.0458322 2.9 0 3.15 0 3.4C0 3.66667 0.0458322 3.92083 0.137499 4.1625C0.229166 4.40417 0.374999 4.625 0.574999 4.825L13.75 18H18ZM5.525 5.525L6.225 4.8L4.8 6.225L5.525 5.525Z" fill="#096295"/>
</svg>
