<svg width="156" height="117" viewBox="0 0 156 117" fill="none" xmlns="http://www.w3.org/2000/svg">
<path d="M156 102.309H0V102.387H156V102.309Z" fill="#EBEBEB"/>
<path d="M140.369 107.329H133.605V107.407H140.369V107.329Z" fill="#EBEBEB"/>
<path d="M107.537 105.713H96.8947V105.791H107.537V105.713Z" fill="#EBEBEB"/>
<path d="M137.629 104.434H123.736V104.512H137.629V104.434Z" fill="#EBEBEB"/>
<path d="M53.9822 106.006H50.5066V106.084H53.9822V106.006Z" fill="#EBEBEB"/>
<path d="M47.7266 106.006H35.749V106.084H47.7266V106.006Z" fill="#EBEBEB"/>
<path d="M29.3311 104.689H20.6887V104.767H29.3311V104.689Z" fill="#EBEBEB"/>
<path d="M73.944 88.3936H13.6999C13.228 88.3928 12.7756 88.2047 12.4422 87.8707C12.1088 87.5367 11.9215 87.084 11.9215 86.6121V1.92592C11.9256 1.45668 12.1147 1.00801 12.4477 0.677368C12.7807 0.346723 13.2307 0.160807 13.6999 0.160004H73.944C74.4165 0.160004 74.8696 0.347699 75.2037 0.681799C75.5378 1.0159 75.7255 1.46903 75.7255 1.94152V86.6121C75.7255 87.0846 75.5378 87.5377 75.2037 87.8718C74.8696 88.2059 74.4165 88.3936 73.944 88.3936ZM13.6999 0.222404C13.2487 0.22323 12.8162 0.403072 12.4974 0.722454C12.1786 1.04184 11.9995 1.47466 11.9995 1.92592V86.6121C11.9995 87.0633 12.1786 87.4962 12.4974 87.8156C12.8162 88.1349 13.2487 88.3148 13.6999 88.3156H73.944C74.3956 88.3148 74.8284 88.135 75.1477 87.8157C75.467 87.4964 75.6467 87.0636 75.6475 86.6121V1.92592C75.6467 1.47438 75.467 1.04156 75.1477 0.722264C74.8284 0.402971 74.3956 0.223229 73.944 0.222404H13.6999Z" fill="#EBEBEB"/>
<path d="M141.433 88.3936H81.1855C80.7133 88.3928 80.2606 88.2048 79.9267 87.8709C79.5928 87.537 79.4048 87.0843 79.404 86.6121V1.92592C79.4089 1.4564 79.5987 1.00773 79.9322 0.677173C80.2657 0.346614 80.716 0.160799 81.1855 0.160004H141.433C141.901 0.161627 142.351 0.347905 142.683 0.678463C143.015 1.00902 143.204 1.45722 143.208 1.92592V86.6121C143.208 87.0835 143.021 87.5357 142.688 87.8696C142.356 88.2035 141.904 88.392 141.433 88.3936ZM81.1855 0.222404C80.734 0.223229 80.3012 0.402971 79.9819 0.722264C79.6626 1.04156 79.4828 1.47438 79.482 1.92592V86.6121C79.4828 87.0636 79.6626 87.4964 79.9819 87.8157C80.3012 88.135 80.734 88.3148 81.1855 88.3156H141.433C141.884 88.3148 142.317 88.135 142.636 87.8157C142.956 87.4964 143.135 87.0636 143.136 86.6121V1.92592C143.135 1.47438 142.956 1.04156 142.636 0.722264C142.317 0.402971 141.884 0.223229 141.433 0.222404H81.1855Z" fill="#EBEBEB"/>
<path d="M67.4138 45.6746L67.5542 41.5749L65.0395 40.7512C64.9314 39.3619 64.706 37.9842 64.3656 36.6328L66.4997 35.0728L65.052 31.2227L62.4125 31.4349C61.7867 30.1944 61.056 29.0097 60.2285 27.8937L61.595 25.613L58.787 22.6147L56.4283 23.8221C55.3677 22.9155 54.2344 22.0974 53.04 21.376L53.4206 18.7552L49.6766 17.0579L47.9606 19.0672C46.6368 18.6437 45.2802 18.3307 43.9046 18.1312L43.2806 15.5635L39.1685 15.423L38.3573 17.9409C36.9693 18.05 35.5928 18.2744 34.242 18.6117L32.657 16.4901L28.807 17.9284L29.0191 20.5679C27.7793 21.2033 26.5948 21.9411 25.4779 22.7738L23.1816 21.376L20.1708 24.184L21.3782 26.5552C20.4714 27.6106 19.6572 28.7421 18.9446 29.9373L16.327 29.5442L14.6172 33.2882L16.639 35.0011C16.2125 36.3241 15.8994 37.6809 15.703 39.0571L13.104 39.7091L12.9636 43.8088L15.4908 44.6325C15.5953 46.021 15.8198 47.3979 16.1616 48.7478L14.0275 50.3078L15.4783 54.161L18.1178 53.9488C18.7421 55.1901 19.4728 56.375 20.3018 57.49L18.9322 59.7707L21.7402 62.7691L24.0989 61.5616C25.1568 62.468 26.288 63.2852 27.481 64.0046L27.0878 66.6222L30.8318 68.3227L32.5572 66.3134C33.881 66.7407 35.2375 67.0589 36.6132 67.265L37.2372 69.8327L41.3494 69.9731L42.1606 67.4553C43.5494 67.3449 44.9269 67.1205 46.279 66.7845L47.839 68.9061L51.689 67.4678L51.4894 64.8282C52.7269 64.1889 53.9111 63.4512 55.0306 62.6224L57.2988 63.989L60.3096 61.181L59.1022 58.8098C60.0093 57.7546 60.8235 56.6231 61.5358 55.4277L64.1534 55.8208L65.8632 52.0768L63.8414 50.3608C64.2751 49.0388 64.5935 47.6817 64.793 46.3048L67.4138 45.6746ZM39.7114 58.9564C36.494 58.8477 33.3811 57.7873 30.7666 55.9092C28.152 54.0311 26.1532 51.4197 25.0229 48.4055C23.8927 45.3912 23.6818 42.1095 24.4169 38.9753C25.1521 35.8412 26.8003 32.9955 29.153 30.7982C31.5057 28.6009 34.4572 27.1508 37.6342 26.6312C40.8112 26.1116 44.0709 26.546 47.001 27.8793C49.9311 29.2126 52.4 31.3849 54.0953 34.1216C55.7906 36.8582 56.6361 40.0362 56.525 43.2534C56.377 47.5652 54.5225 51.6415 51.3695 54.5862C48.2165 57.531 44.0231 59.1029 39.7114 58.9564Z" fill="#EBEBEB"/>
<path d="M137.592 32.115L138.625 31.151L138.216 30.3366C138.528 29.9718 138.809 29.5814 139.055 29.1698L139.96 29.3039L140.544 28.0122L139.851 27.4226C140 26.9659 140.11 26.4972 140.178 26.0217L141.068 25.8002L141.111 24.3837L140.244 24.1029C140.206 23.6231 140.129 23.1473 140.013 22.6802L140.746 22.1342L140.247 20.8082L139.339 20.8799C139.12 20.4523 138.867 20.0432 138.581 19.6569L139.052 18.8769L138.082 17.841L137.271 18.256C136.905 17.9449 136.515 17.6642 136.104 17.4167L136.235 16.5119L134.946 15.9222L134.353 16.618C133.896 16.4755 133.427 16.3712 132.953 16.306L132.731 15.4199L131.315 15.3669L131.031 16.2405C130.553 16.277 130.079 16.3542 129.614 16.4714L129.071 15.7382L127.742 16.2342L127.817 17.1453C127.388 17.3621 126.979 17.6158 126.594 17.9034L125.808 17.4323L124.772 18.3964L125.174 19.192C124.86 19.5558 124.578 19.9463 124.332 20.3589L123.43 20.2247L122.844 21.5164L123.54 22.1092C123.395 22.5652 123.291 23.0329 123.228 23.507L122.335 23.7285L122.292 25.145L123.162 25.4258C123.198 25.9056 123.274 26.3815 123.39 26.8485L122.653 27.3914L123.153 28.7174L124.064 28.6487C124.283 29.0764 124.536 29.4854 124.822 29.8718L124.351 30.6518L125.321 31.6876L126.132 31.2726C126.497 31.5847 126.887 31.8655 127.299 32.1119L127.165 33.0136L128.457 33.6033L129.049 32.9106C129.507 33.0516 129.976 33.156 130.45 33.2226L130.672 34.1087L132.088 34.1618L132.372 33.2882C132.85 33.2518 133.324 33.1746 133.789 33.0573L134.332 33.7905L135.661 33.2944L135.589 32.3834C136.017 32.1662 136.425 31.9126 136.809 31.6252L137.592 32.115ZM130.223 26.1465C129.95 25.8545 129.77 25.4883 129.706 25.0942C129.642 24.7001 129.696 24.2958 129.861 23.9324C130.027 23.569 130.297 23.2628 130.636 23.0527C130.976 22.8425 131.37 22.7378 131.769 22.7518C132.168 22.7658 132.554 22.8978 132.878 23.1312C133.202 23.3646 133.45 23.6888 133.589 24.0629C133.729 24.437 133.755 24.8441 133.663 25.2328C133.571 25.6214 133.366 25.9741 133.074 26.2463C132.88 26.4292 132.652 26.5717 132.403 26.6658C132.153 26.7598 131.888 26.8035 131.621 26.7942C131.355 26.7849 131.093 26.7229 130.851 26.6117C130.609 26.5005 130.391 26.3424 130.21 26.1465H130.223Z" fill="#EBEBEB"/>
<path d="M99.84 74.2101L96.6139 71.9793C96.2977 70.8176 95.8628 69.6916 95.316 68.619L96.1428 65.3742L91.4628 60.3635L88.1681 60.9657C87.1344 60.3464 86.0398 59.8352 84.9014 59.44L82.8984 56.0673L76.0344 55.8333L73.8067 59.0594C72.6465 59.3754 71.5216 59.8092 70.4496 60.3542L67.2048 59.5274L62.1941 64.2074L62.7962 67.4958C62.1775 68.5316 61.6673 69.6283 61.2737 70.7687L57.901 72.7718L57.667 79.6358L60.8962 81.8634C61.2071 83.0314 61.6412 84.163 62.191 85.2393L61.3548 88.456L66.0348 93.4667L69.3077 92.8677C70.3491 93.4876 71.4509 93.9999 72.5962 94.3965L74.5961 97.763L81.4601 98.0001L83.6846 94.774C84.8553 94.4578 85.9907 94.0229 87.073 93.4761L90.299 94.2998L95.3129 89.6198L94.7107 86.3313C95.3313 85.2955 95.8416 84.1975 96.2333 83.0553L99.606 81.0522L99.84 74.2101ZM78.4836 84.6278C76.9598 84.5757 75.4857 84.0729 74.2476 83.1831C73.0095 82.2933 72.063 81.0563 71.5279 79.6286C70.9928 78.2009 70.893 76.6466 71.2412 75.1622C71.5893 73.6778 72.3698 72.33 73.484 71.2891C74.5981 70.2483 75.9958 69.5612 77.5005 69.3147C79.0051 69.0681 80.549 69.2733 81.937 69.9042C83.3251 70.5351 84.4949 71.5634 85.2986 72.8591C86.1022 74.1547 86.5036 75.6596 86.4521 77.1834C86.3805 79.2271 85.5008 81.1589 84.0062 82.5546C82.5117 83.9504 80.5243 84.696 78.4805 84.6278H78.4836Z" fill="#EBEBEB"/>
<path d="M107.188 54.76H107.166L101.762 54.5759C101.652 54.5739 101.545 54.5443 101.45 54.4897C101.355 54.4352 101.276 54.3575 101.219 54.2639L99.762 51.8147C98.9767 51.5274 98.2169 51.1747 97.4906 50.7602L95.16 51.1626C95.0514 51.1825 94.9396 51.1746 94.8348 51.1397C94.7301 51.1048 94.6359 51.044 94.561 50.963L90.87 47.013C90.7925 46.9312 90.7375 46.8308 90.7102 46.7215C90.6828 46.6122 90.6842 46.4977 90.714 46.389L91.3037 44.0771C90.9383 43.328 90.6397 42.5481 90.4114 41.7465L88.062 40.1241C87.9709 40.0615 87.8971 39.9769 87.8474 39.8782C87.7978 39.7795 87.7739 39.6698 87.7781 39.5594L87.9622 34.1555C87.9658 34.0464 87.9962 33.9399 88.0506 33.8452C88.105 33.7506 88.1817 33.6707 88.2742 33.6126L90.7296 32.1556C91.0128 31.3721 91.3646 30.6151 91.781 29.8936L91.3505 27.5442C91.3303 27.4352 91.3381 27.3228 91.373 27.2175C91.4079 27.1122 91.4688 27.0175 91.5502 26.9421L95.5001 23.2542C95.5818 23.1765 95.682 23.121 95.7913 23.0932C95.9006 23.0653 96.0151 23.066 96.1241 23.0951L98.4454 23.6879C99.1926 23.3224 99.9704 23.0228 100.77 22.7925L102.392 20.4431C102.452 20.3498 102.537 20.2743 102.636 20.2244C102.735 20.1744 102.846 20.152 102.957 20.1592L108.358 20.3464C108.467 20.3487 108.575 20.3785 108.67 20.433C108.766 20.4875 108.846 20.565 108.904 20.6584L110.361 23.1107C111.14 23.397 111.894 23.7498 112.613 24.1653L114.972 23.7316C115.081 23.7114 115.193 23.7192 115.297 23.7541C115.402 23.789 115.496 23.85 115.571 23.9313L119.262 27.8812C119.339 27.9633 119.394 28.0638 119.421 28.173C119.448 28.2821 119.447 28.3965 119.418 28.5052L118.825 30.8234C119.191 31.571 119.491 32.3487 119.724 33.1478L122.07 34.7702C122.161 34.8327 122.235 34.9173 122.285 35.016C122.334 35.1148 122.358 35.2244 122.354 35.3349L122.17 40.7356C122.166 40.8451 122.136 40.9521 122.081 41.0472C122.027 41.1424 121.95 41.2228 121.858 41.2816L119.402 42.7386C119.117 43.5203 118.766 44.2761 118.351 44.9975L118.782 47.35C118.802 47.4586 118.794 47.5705 118.759 47.6753C118.724 47.7801 118.663 47.8743 118.582 47.949L114.607 51.64C114.525 51.7175 114.425 51.7725 114.315 51.7998C114.206 51.8272 114.092 51.8258 113.983 51.796L111.674 51.2063C110.922 51.5702 110.14 51.8697 109.337 52.1018L107.73 54.448C107.673 54.5406 107.593 54.6175 107.498 54.6719C107.403 54.7264 107.297 54.7566 107.188 54.76ZM102.168 53.2718L106.848 53.4309L108.408 51.1876C108.494 51.0567 108.626 50.9631 108.779 50.9255C109.657 50.6854 110.509 50.3583 111.322 49.949C111.463 49.8807 111.624 49.8641 111.777 49.9022L113.961 50.4606L117.393 47.2626L117 45.0069C116.97 44.8492 116.999 44.6859 117.081 44.5482C117.545 43.7757 117.926 42.9569 118.22 42.1053C118.269 41.9509 118.374 41.8199 118.513 41.7371L120.863 40.3456L121.022 35.6656L118.775 34.1056C118.657 34.0248 118.568 33.9076 118.523 33.7718C118.523 33.7562 118.523 33.7374 118.523 33.7187C118.282 32.8563 117.956 32.0201 117.549 31.2227C117.477 31.08 117.459 30.9158 117.499 30.761L118.061 28.552L114.863 25.12L112.62 25.5318C112.463 25.5602 112.301 25.5314 112.164 25.4507C111.39 24.9864 110.57 24.6027 109.718 24.3057C109.669 24.29 109.622 24.2691 109.578 24.2433C109.488 24.1872 109.413 24.1101 109.359 24.0186L107.952 21.663L103.272 21.5008L101.712 23.7503C101.619 23.8822 101.482 23.9763 101.325 24.0155C100.456 24.253 99.6136 24.5781 98.8104 24.9858C98.6688 25.0581 98.5056 25.0759 98.3518 25.0358L96.1428 24.4742L92.7108 27.6722L93.1226 29.9092C93.1471 30.0503 93.1263 30.1955 93.0634 30.3242L93.0322 30.3772C92.5681 31.1527 92.1865 31.9746 91.8934 32.8295C91.8417 32.9761 91.7401 33.0998 91.6063 33.179L89.257 34.5736L89.0978 39.2536L91.3474 40.8136C91.4756 40.9014 91.5685 41.0318 91.6094 41.1818C91.8433 42.0579 92.1685 42.907 92.5798 43.7152C92.602 43.7612 92.6198 43.8093 92.6328 43.8587C92.6563 43.9614 92.6563 44.068 92.6328 44.1707L92.0712 46.3547L95.2692 49.7867L97.4969 49.378C97.6525 49.3495 97.8132 49.3783 97.9493 49.4591C98.7293 49.9226 99.554 50.3062 100.411 50.6042C100.566 50.6501 100.696 50.7541 100.776 50.8943L102.168 53.2718ZM105.06 47.3531C104.944 47.3531 104.829 47.3531 104.713 47.3531C102.12 47.3075 99.6492 46.2392 97.8393 44.3809C96.0294 42.5226 95.0268 40.0246 95.0496 37.4307C95.0724 34.8368 96.1189 32.3568 97.9612 30.5307C99.8035 28.7045 102.293 27.6799 104.887 27.6799C107.481 27.6799 109.97 28.7045 111.812 30.5307C113.654 32.3568 114.701 34.8368 114.724 37.4307C114.746 40.0246 113.744 42.5226 111.934 44.3809C110.124 46.2392 107.653 47.3075 105.06 47.3531ZM105.06 28.917C102.793 28.9561 100.634 29.8889 99.0519 31.5125C97.4698 33.136 96.5931 35.3187 96.6127 37.5855C96.6322 39.8522 97.5464 42.0195 99.1562 43.6155C100.766 45.2115 102.941 46.107 105.208 46.107C107.475 46.107 109.65 45.2115 111.26 43.6155C112.87 42.0195 113.784 39.8522 113.803 37.5855C113.823 35.3187 112.946 33.136 111.364 31.5125C109.782 29.8889 107.623 28.9561 105.356 28.917H105.06Z" fill="#EBEBEB"/>
<path d="M119.633 15.8598L117.393 15.2608L116.794 13.0206L117.671 12.147L118.594 14.0596L120.51 14.9862L119.633 15.8598Z" fill="#E0E0E0"/>
<path d="M119.771 14.3622C119.867 14.2653 119.944 14.1503 119.997 14.0237C120.049 13.8971 120.076 13.7614 120.076 13.6244C120.076 13.4873 120.049 13.3516 119.997 13.225C119.944 13.0984 119.867 12.9834 119.771 12.8865C119.674 12.7896 119.559 12.7127 119.432 12.6603C119.305 12.6078 119.17 12.5808 119.033 12.5808C118.896 12.5808 118.76 12.6078 118.633 12.6603C118.507 12.7127 118.392 12.7896 118.295 12.8865L119.409 11.2142L120.9 11.9692L121.228 13.5292L119.771 14.3622Z" fill="#E0E0E0"/>
<path d="M117.493 12.328L119.134 10.6869L121.368 11.2828L121.97 13.5199L120.329 15.161L118.092 14.5588L117.493 12.328ZM120.473 13.6696C120.619 13.5234 120.718 13.3372 120.758 13.1344C120.799 12.9317 120.778 12.7216 120.699 12.5307C120.62 12.3398 120.486 12.1766 120.314 12.0618C120.142 11.947 119.94 11.8857 119.733 11.8857C119.526 11.8857 119.324 11.947 119.153 12.0618C118.981 12.1766 118.847 12.3398 118.768 12.5307C118.688 12.7216 118.668 12.9317 118.708 13.1344C118.748 13.3372 118.848 13.5234 118.994 13.6696C119.191 13.8635 119.458 13.9716 119.734 13.9704C120.011 13.9693 120.277 13.8589 120.473 13.6634V13.6696Z" fill="#F0F0F0"/>
<path d="M28.1486 75.5735L29.3498 75.249L29.6712 74.0478L29.2032 73.5798L28.7071 74.6063L27.6775 75.1024L28.1486 75.5735Z" fill="#E0E0E0"/>
<path d="M28.08 74.7685C27.9861 74.6613 27.9365 74.5224 27.9412 74.38C27.946 74.2376 28.0046 74.1023 28.1054 74.0015C28.2062 73.9007 28.3415 73.842 28.4839 73.8373C28.6264 73.8326 28.7653 73.8822 28.8725 73.9761L28.2766 73.0806L27.456 73.48L27.2813 74.3224L28.08 74.7685Z" fill="#E0E0E0"/>
<path d="M29.2968 73.6735L28.417 72.7936L27.2158 73.1056L26.9038 74.3068L27.768 75.196L28.9692 74.884L29.2968 73.6735ZM27.6994 74.3942C27.6415 74.3435 27.5947 74.2815 27.5618 74.2121C27.5289 74.1426 27.5106 74.0671 27.508 73.9902C27.5055 73.9134 27.5187 73.8369 27.547 73.7654C27.5752 73.6938 27.6178 73.6289 27.6722 73.5745C27.7266 73.5202 27.7915 73.4775 27.863 73.4493C27.9345 73.4211 28.0111 73.4078 28.0879 73.4104C28.1647 73.4129 28.2402 73.4312 28.3097 73.4641C28.3792 73.497 28.4412 73.5439 28.4918 73.6017C28.5857 73.7089 28.6353 73.8478 28.6306 73.9902C28.6259 74.1327 28.5672 74.268 28.4664 74.3688C28.3657 74.4695 28.2303 74.5282 28.0879 74.5329C27.9455 74.5377 27.8066 74.488 27.6994 74.3942Z" fill="#F0F0F0"/>
<path d="M23.8243 9.72592L24.8227 10.7243C24.9476 10.847 25.1156 10.9158 25.2907 10.9158C25.4658 10.9158 25.6339 10.847 25.7587 10.7243C25.8807 10.5991 25.9489 10.4312 25.9489 10.2563C25.9489 10.0815 25.8807 9.91357 25.7587 9.78832L24.7634 8.79304C24.6382 8.67107 24.4703 8.60281 24.2954 8.60281C24.1206 8.60281 23.9527 8.67107 23.8274 8.79304C23.7052 8.91736 23.6365 9.08453 23.6359 9.25885C23.6353 9.43316 23.703 9.60079 23.8243 9.72592Z" fill="#F0F0F0"/>
<path d="M23.1223 7.24552C23.3828 7.17307 23.6589 7.17828 23.9165 7.26051C24.1741 7.34274 24.4021 7.4984 24.5724 7.70839C24.7428 7.91838 24.8482 8.17355 24.8755 8.44257C24.9029 8.71159 24.8512 8.98276 24.7266 9.22277C24.602 9.46277 24.4101 9.66118 24.1743 9.79363C23.9385 9.92607 23.6692 9.98679 23.3995 9.96832C23.1297 9.94986 22.8712 9.85301 22.6557 9.68967C22.4401 9.52634 22.277 9.30362 22.1863 9.04888C22.1287 8.86903 22.1073 8.67957 22.1232 8.4914C22.1391 8.30323 22.1921 8.12007 22.2791 7.95246C22.3661 7.78485 22.4854 7.6361 22.6301 7.51477C22.7748 7.39345 22.9421 7.30194 23.1223 7.24552Z" fill="#E0E0E0"/>
<path d="M22.0365 8.88185L22.181 9.28412L25.1467 8.21876L25.0022 7.81649L22.0365 8.88185Z" fill="#F0F0F0"/>
<path d="M78 116.399C111.41 116.399 138.494 114.817 138.494 112.867C138.494 110.916 111.41 109.335 78 109.335C44.5903 109.335 17.5063 110.916 17.5063 112.867C17.5063 114.817 44.5903 116.399 78 116.399Z" fill="#F5F5F5"/>
<path d="M39.1622 58.945C38.8502 57.5691 38.9875 56.4147 39.5803 55.4724C40.1731 54.5302 41.1403 53.9124 42.5162 53.6004C43.8922 53.2884 45.0809 53.4132 46.0106 53.9935C46.9404 54.5739 47.5706 55.5535 47.8826 56.8951C48.1029 57.7232 48.1211 58.592 47.9357 59.4286C47.7543 60.1233 47.371 60.7487 46.8343 61.2257C46.1968 61.7624 45.4317 62.1256 44.6129 62.2803C43.8102 62.4934 42.9697 62.5222 42.1543 62.3645C41.4455 62.1922 40.8045 61.8119 40.3135 61.2725C39.727 60.6146 39.3292 59.8104 39.1622 58.945ZM41.7643 58.3647C41.9578 59.2133 42.2542 59.7874 42.6535 60.0869C42.8597 60.2243 43.0915 60.3187 43.335 60.3643C43.5786 60.4098 43.8288 60.4057 44.0707 60.3521C44.3126 60.2984 44.5412 60.1964 44.7427 60.0522C44.9441 59.908 45.1144 59.7245 45.2431 59.5128C45.4678 59.0791 45.4709 58.3896 45.2587 57.4505C45.0778 56.658 44.7855 56.1151 44.382 55.8219C44.1788 55.676 43.9456 55.5776 43.6993 55.5339C43.4531 55.4902 43.2002 55.5022 42.9593 55.5691C42.7181 55.6143 42.4903 55.7136 42.2931 55.8595C42.0958 56.0054 41.9342 56.1941 41.8205 56.4115C41.5896 56.8702 41.5678 57.4942 41.7643 58.3647Z" fill="#263238"/>
<path d="M49.1057 57.9154C48.9949 57.4902 48.9751 57.0464 49.0477 56.613C49.1203 56.1797 49.2836 55.7665 49.5269 55.4007C49.7997 55.0119 50.1465 54.6809 50.5475 54.4266C50.9486 54.1723 51.3959 53.9997 51.8638 53.9187C53.0847 53.642 54.0873 53.7866 54.8714 54.3523C55.5314 54.8639 55.98 55.6004 56.1319 56.4214C56.2838 57.2425 56.1283 58.0908 55.6951 58.8046C55.2084 59.5471 54.4159 60.0422 53.3177 60.2897C52.4716 60.5262 51.5688 60.4532 50.7718 60.0838C50.3455 59.8755 49.9733 59.5713 49.6843 59.1951C49.3952 58.8189 49.1972 58.3809 49.1057 57.9154ZM51.4488 57.3756C51.5119 57.8116 51.7248 58.212 52.051 58.5082C52.1802 58.606 52.3293 58.6745 52.4877 58.709C52.6461 58.7434 52.8102 58.743 52.9684 58.7077C53.1267 58.6723 53.2753 58.603 53.4041 58.5044C53.5328 58.4058 53.6385 58.2804 53.7139 58.1369C53.8773 57.7178 53.8927 57.2555 53.7576 56.8265C53.692 56.4007 53.4815 56.0106 53.1617 55.722C53.0376 55.6214 52.8919 55.5508 52.7361 55.5156C52.5803 55.4804 52.4184 55.4817 52.2631 55.5192C52.1012 55.5528 51.9491 55.6227 51.8183 55.7238C51.6875 55.8249 51.5814 55.9545 51.5081 56.1027C51.3401 56.507 51.3191 56.9574 51.4488 57.3756Z" fill="#263238"/>
<path d="M58.4626 61.416L56.55 52.992L58.734 52.4928L58.9399 53.3945C59.094 53.0349 59.3177 52.7093 59.5982 52.4366C59.906 52.1753 60.2737 51.9942 60.6684 51.9093C61.0331 51.8101 61.417 51.8044 61.7846 51.8928C62.1521 51.9811 62.4915 52.1606 62.7713 52.4148C63.3879 52.9912 63.8062 53.7481 63.9662 54.5769C64.1971 55.5909 64.1285 56.4209 63.7666 57.073C63.5944 57.3847 63.3565 57.6553 63.0694 57.866C62.7822 58.0766 62.4527 58.2223 62.1036 58.2929C61.7673 58.3726 61.4187 58.3864 61.0771 58.3334C60.7495 58.276 60.4373 58.1518 60.1598 57.9684L60.8213 60.8793L58.4626 61.416ZM59.5889 55.5317C59.6462 55.9213 59.8409 56.2777 60.138 56.5363C60.2571 56.6275 60.3953 56.6906 60.5423 56.7209C60.6893 56.7511 60.8412 56.7478 60.9866 56.711C61.1217 56.6839 61.2486 56.6255 61.357 56.5404C61.4654 56.4553 61.5522 56.346 61.6106 56.2212C61.7433 55.8307 61.7433 55.4073 61.6106 55.0169C61.5536 54.6252 61.3655 54.2645 61.0771 53.9935C60.9701 53.9046 60.8442 53.8416 60.7089 53.8091C60.5737 53.7766 60.4328 53.7757 60.2971 53.8063C60.1538 53.8373 60.0193 53.9002 59.9036 53.9904C59.788 54.0806 59.6943 54.1958 59.6294 54.3273C59.4767 54.7119 59.4624 55.1377 59.5889 55.5317Z" fill="#263238"/>
<path d="M64.9678 55.7158L67.2391 54.9701C67.3599 55.1897 67.548 55.3647 67.7758 55.4693C68.0208 55.5403 68.2802 55.5459 68.5281 55.4857C68.776 55.4255 69.0039 55.3015 69.1891 55.1261C69.2409 55.071 69.2785 55.0042 69.2986 54.9313C69.3187 54.8585 69.3207 54.7818 69.3046 54.708C69.2858 54.6235 69.2422 54.5466 69.1794 54.4871C69.1165 54.4276 69.0374 54.3883 68.952 54.3742C68.5995 54.3355 68.2437 54.3355 67.8912 54.3742C67.2995 54.4245 66.7045 54.4245 66.1128 54.3742C65.7664 54.3239 65.4416 54.1756 65.1768 53.9467C64.8943 53.7022 64.6991 53.3723 64.6209 53.0069C64.5426 52.6415 64.5855 52.2606 64.7431 51.9218C64.9251 51.5593 65.2078 51.2571 65.5574 51.0514C66.0551 50.7686 66.5958 50.5694 67.158 50.4617C67.6946 50.316 68.2495 50.2488 68.8054 50.262C69.1544 50.2845 69.4928 50.3916 69.7913 50.574C70.1093 50.7885 70.3792 51.0669 70.5838 51.3914L68.3998 52.1122C68.3181 51.9496 68.1824 51.8205 68.016 51.7471C67.7884 51.6657 67.5416 51.6548 67.3078 51.7159C67.1011 51.7447 66.9095 51.84 66.7618 51.9874C66.7148 52.0376 66.6809 52.0985 66.663 52.1649C66.645 52.2312 66.6436 52.301 66.6588 52.368C66.6757 52.4418 66.7146 52.5087 66.7703 52.5599C66.826 52.6112 66.8959 52.6443 66.9708 52.655C67.3196 52.6955 67.6723 52.6882 68.0191 52.6332C68.6207 52.546 69.2312 52.5376 69.835 52.6082C70.2148 52.6619 70.5706 52.8257 70.8583 53.0794C71.1185 53.3153 71.2994 53.6259 71.3762 53.9686C71.4562 54.336 71.4269 54.7189 71.292 55.0699C71.127 55.4855 70.8398 55.8413 70.4683 56.0902C69.9211 56.4479 69.308 56.6929 68.665 56.8109C67.5522 57.0646 66.7202 57.0865 66.169 56.8764C65.6319 56.6619 65.2005 56.2451 64.9678 55.7158Z" fill="#263238"/>
<path d="M72.5868 48H75.1483V49.9656L74.6772 53.9186H73.0922L72.5868 49.9718V48ZM72.7116 54.5146H75.1015V56.6299H72.7116V54.5146Z" fill="#263238"/>
<path d="M69.4044 78.1101C69.8381 71.1213 69.0425 58.4135 82.1808 60.0983C96.2614 61.8986 92.2334 78.3659 92.2334 78.3659L69.4044 78.1101Z" fill="#263238"/>
<path d="M78.4711 73.9106C81.6382 73.9106 84.2057 71.3431 84.2057 68.176C84.2057 65.0089 81.6382 62.4414 78.4711 62.4414C75.304 62.4414 72.7366 65.0089 72.7366 68.176C72.7366 71.3431 75.304 73.9106 78.4711 73.9106Z" fill="white"/>
<path d="M79.2262 62.4508C76.5086 61.989 73.6102 63.9889 73.32 66.0169L84.0871 67.0091C83.7065 64.6972 81.379 62.819 79.2262 62.4508Z" fill="#263238"/>
<path d="M82.861 68.0325C82.783 69.5332 81.9655 70.7095 81.0358 70.6595C80.106 70.6096 79.4134 69.3585 79.4758 67.8515C79.5382 66.3446 80.3712 65.1746 81.301 65.2245C82.2307 65.2744 82.9358 66.5349 82.861 68.0325Z" fill="#263238"/>
<path d="M78.4711 74.2226C77.2752 74.2226 76.1062 73.868 75.1118 73.2036C74.1175 72.5391 73.3425 71.5948 72.8848 70.4899C72.4272 69.3851 72.3074 68.1693 72.5407 66.9964C72.7741 65.8235 73.3499 64.7461 74.1956 63.9005C75.0412 63.0548 76.1186 62.4789 77.2915 62.2456C78.4644 62.0123 79.6802 62.1321 80.785 62.5897C81.8899 63.0474 82.8342 63.8224 83.4987 64.8167C84.1631 65.8111 84.5177 66.9801 84.5177 68.176C84.516 69.7792 83.8785 71.3162 82.7449 72.4498C81.6113 73.5833 80.0743 74.2209 78.4711 74.2226ZM78.4711 62.7566C77.3985 62.7566 76.35 63.0747 75.4582 63.6707C74.5664 64.2666 73.8714 65.1137 73.461 66.1047C73.0507 67.0958 72.9435 68.1862 73.153 69.2382C73.3625 70.2901 73.8792 71.2563 74.6379 72.0146C75.3966 72.7728 76.3631 73.289 77.4151 73.4979C78.4672 73.7068 79.5576 73.5989 80.5484 73.188C81.5392 72.7771 82.3859 72.0816 82.9813 71.1895C83.5768 70.2973 83.8943 69.2486 83.8937 68.176C83.892 66.7387 83.3201 65.3607 82.3034 64.3446C81.2868 63.3285 79.9085 62.7574 78.4711 62.7566Z" fill="#0A76B6"/>
<path opacity="0.3" d="M90.6329 77.9354H90.5954C90.5754 77.931 90.5564 77.9226 90.5397 77.9107C90.523 77.8989 90.5088 77.8837 90.498 77.8663C90.4872 77.8488 90.4801 77.8293 90.477 77.809C90.4739 77.7888 90.4749 77.768 90.48 77.7482C90.48 77.7076 91.4846 73.4769 90.4519 69.1994C90.442 69.158 90.4489 69.1144 90.4711 69.0781C90.4934 69.0418 90.5291 69.0159 90.5705 69.0059C90.6119 68.996 90.6555 69.0029 90.6918 69.0251C90.728 69.0474 90.754 69.0831 90.7639 69.1245C91.8154 73.4925 90.8014 77.7794 90.792 77.8199C90.7828 77.8545 90.7619 77.8848 90.7329 77.9059C90.7039 77.9269 90.6686 77.9373 90.6329 77.9354Z" fill="white"/>
<path opacity="0.3" d="M89.7624 66.8531C89.7325 66.8528 89.7032 66.8441 89.6779 66.8282C89.6525 66.8122 89.6321 66.7895 89.6189 66.7627C89.2311 65.9055 88.734 65.1022 88.14 64.3727C88.1141 64.3408 88.1019 64.2999 88.106 64.259C88.1101 64.2182 88.1302 64.1805 88.1618 64.1543C88.1777 64.141 88.1961 64.1311 88.2159 64.125C88.2357 64.1189 88.2566 64.1168 88.2772 64.1188C88.2978 64.1208 88.3178 64.1269 88.3361 64.1368C88.3543 64.1467 88.3704 64.16 88.3834 64.1762C88.9921 64.9268 89.5027 65.7519 89.9028 66.6316C89.9117 66.65 89.9168 66.67 89.9178 66.6904C89.9189 66.7108 89.9158 66.7312 89.9088 66.7504C89.9018 66.7696 89.8911 66.7872 89.8772 66.8021C89.8633 66.8171 89.8465 66.8291 89.8279 66.8375C89.8074 66.8471 89.7851 66.8524 89.7624 66.8531Z" fill="white"/>
<path d="M40.1638 110.895H40.0483C39.6346 110.883 39.2424 110.708 38.958 110.407C38.6737 110.107 38.5204 109.705 38.532 109.291C38.5436 108.878 38.7191 108.485 39.0198 108.201C39.3205 107.917 39.7219 107.763 40.1357 107.775H40.1638C41.0654 107.775 43.2338 106.68 47.7703 99.5289C47.8907 99.339 48.0508 99.1773 48.2395 99.0551C48.4283 98.9328 48.6412 98.8527 48.8637 98.8204C49.0863 98.7881 49.3132 98.8043 49.5289 98.8679C49.7446 98.9315 49.944 99.041 50.1134 99.1888C53.676 102.251 57.5615 104.917 61.7011 107.139C61.8927 107.226 62.0647 107.351 62.2067 107.506C62.3487 107.661 62.4578 107.844 62.5274 108.042C62.597 108.241 62.6258 108.452 62.6119 108.662C62.598 108.872 62.5417 109.077 62.4465 109.264C62.3513 109.452 62.2191 109.619 62.0578 109.754C61.8966 109.889 61.7096 109.99 61.5083 110.051C61.3069 110.113 61.0952 110.132 60.886 110.109C60.6768 110.087 60.4743 110.022 60.2909 109.918C56.4435 107.874 52.8068 105.456 49.4333 102.699C45.63 108.424 42.8095 110.895 40.1638 110.895Z" fill="#263238"/>
<path d="M49.817 98.908H49.6829C49.4377 98.8725 49.2166 98.7412 49.0681 98.5429C48.9195 98.3447 48.8556 98.0956 48.8904 97.8503C49.1119 96.2903 48.8374 90.4778 46.8686 85.9538C46.7813 85.7538 46.7666 85.5297 46.827 85.32C46.8873 85.1104 47.0191 84.9284 47.1994 84.8056C51.4738 81.8946 60.5779 81.5452 60.9648 81.5327C61.0877 81.5286 61.2102 81.5488 61.3254 81.592C61.4405 81.6353 61.546 81.7008 61.6358 81.7848C61.7256 81.8688 61.798 81.9697 61.8488 82.0817C61.8996 82.1937 61.9279 82.3146 61.932 82.4375C61.9361 82.5604 61.9159 82.683 61.8727 82.7981C61.8294 82.9132 61.7639 83.0187 61.6799 83.1085C61.5959 83.1983 61.495 83.2707 61.383 83.3215C61.271 83.3724 61.1501 83.4006 61.0272 83.4047C60.943 83.4047 52.9838 83.7167 48.8966 85.9631C50.6376 90.4684 51.0338 96.0813 50.7437 98.1124C50.7101 98.334 50.598 98.5362 50.428 98.6822C50.258 98.8282 50.0412 98.9083 49.817 98.908Z" fill="#263238"/>
<path d="M51.3895 97.6974C50.7655 96.2279 47.9575 96.3933 46.3133 97.6538C45.4334 98.3246 44.2416 100.349 44.1293 101.086C44.0918 101.261 44.0974 101.442 44.1456 101.614C44.1938 101.787 44.2831 101.945 44.4059 102.075C44.5287 102.205 44.6812 102.303 44.8504 102.362C45.0196 102.42 45.2004 102.436 45.3773 102.409C46.4537 102.315 47.9294 100.752 47.9294 100.752C46.9466 101.716 48.2165 102.396 50.1134 101.002C51.1493 100.225 52.0853 99.3417 51.3895 97.6974Z" fill="#0A76B6"/>
<path d="M76.1568 48.7702C76.1424 48.7735 76.1275 48.7735 76.1131 48.7702C76.0932 48.7649 76.0746 48.7556 76.0584 48.7428C76.0422 48.7301 76.0287 48.7142 76.0188 48.6961C76.0089 48.6781 76.0028 48.6582 76.0007 48.6377C75.9987 48.6172 76.0009 48.5965 76.007 48.5768C76.422 47.1291 76.8744 46.2462 77.4703 45.7688C77.3769 45.4332 77.3944 45.0765 77.5202 44.7517C77.6656 44.3725 77.9223 44.0462 78.2566 43.8157C78.1657 43.7175 78.1012 43.5979 78.069 43.4681C78.0368 43.3382 78.038 43.2024 78.0725 43.0731C78.1854 42.6823 78.4191 42.3372 78.7401 42.0872C78.6244 41.9577 78.561 41.7898 78.5623 41.6161C78.5623 40.6801 80.2814 39.2698 82.2314 39.0015C82.2728 38.9957 82.3148 39.0066 82.3481 39.0318C82.3815 39.0569 82.4035 39.0943 82.4093 39.1357C82.4151 39.1771 82.4042 39.219 82.379 39.2524C82.3539 39.2857 82.3165 39.3077 82.2751 39.3135C80.4218 39.5662 78.8681 40.9078 78.8743 41.6161C78.8737 41.7217 78.9139 41.8234 78.9866 41.9C79.4063 41.6154 79.8785 41.4172 80.3756 41.317C80.8727 41.2169 81.3848 41.2167 81.882 41.3166C82.8398 41.5006 83.2298 41.7034 83.1861 41.9936C83.0988 42.5396 81.0614 42.655 79.6949 42.4928C79.4501 42.4706 79.2118 42.4017 78.9929 42.29C78.6987 42.4994 78.4798 42.7981 78.3689 43.1418C78.3421 43.2327 78.3423 43.3294 78.3694 43.4203C78.3966 43.5111 78.4495 43.5921 78.5218 43.6534C79.1021 43.3414 79.9164 43.2291 80.9928 43.4662C82.4061 43.7782 82.4592 43.9498 82.4935 44.0528C82.5045 44.0892 82.5054 44.1279 82.496 44.1647C82.4867 44.2015 82.4675 44.2351 82.4405 44.2618C82.1441 44.5738 79.9757 44.4272 78.8868 44.1589C78.7553 44.1289 78.6284 44.0817 78.5093 44.0185C78.187 44.2143 77.9389 44.5118 77.8041 44.864C77.7141 45.0919 77.6892 45.3404 77.7324 45.5816C77.7879 45.5484 77.8452 45.5182 77.904 45.4911C78.5498 45.1791 79.3298 45.2353 80.2939 45.6471C80.9179 45.9186 81.2299 46.1619 81.2611 46.4084C81.2625 46.4716 81.2467 46.534 81.2153 46.589C81.184 46.6439 81.1384 46.6894 81.0833 46.7204C80.6059 47.0324 78.9398 46.9887 78.0725 46.527C77.873 46.4186 77.7069 46.2579 77.592 46.0621C77.0834 46.5301 76.6716 47.3631 76.2972 48.6704C76.2858 48.6988 76.2666 48.7233 76.2417 48.741C76.2168 48.7587 76.1873 48.7688 76.1568 48.7702ZM77.8478 45.8593C77.9347 46.0207 78.0671 46.153 78.2285 46.2399C78.9336 46.6143 80.3189 46.6986 80.8368 46.4895C80.9429 46.4458 80.9585 46.4115 80.9585 46.4115C80.9585 46.4115 80.9429 46.2368 80.1785 45.9092C79.3049 45.5348 78.6185 45.4818 78.0475 45.747C77.9786 45.7801 77.9119 45.8176 77.8478 45.8593ZM78.8899 43.8094L78.9679 43.8313C79.9839 44.0654 81.0295 44.1443 82.0692 44.0653C81.7004 43.9285 81.3204 43.8241 80.9335 43.7533C80.2615 43.5712 79.5509 43.5908 78.8899 43.8094ZM79.283 42.056C79.427 42.1076 79.5769 42.1412 79.7292 42.1558C81.2892 42.3399 82.6589 42.1246 82.8492 41.9281C82.7962 41.8813 82.5871 41.7471 81.8134 41.6005C80.9427 41.4268 80.0385 41.5896 79.283 42.056Z" fill="#263238"/>
<path d="M64.4374 110.374C64.6433 110.308 64.5746 110.109 64.3438 110.109H60.1193C52.0759 109.257 46.4568 110.399 49.998 110.667C53.5392 110.936 49.7484 110.879 47.1619 111.859C44.5754 112.839 66.3967 113.085 68.3779 111.859C70.2 110.73 61.5857 111.288 64.4374 110.374Z" fill="#263238"/>
<path d="M94.6826 111.619L57.929 110.399L56.4034 74.7623L99.8057 75.7327L94.6826 111.619Z" fill="#0A76B6"/>
<path d="M69.4044 110.936C69.3651 110.936 69.3272 110.921 69.2983 110.894C69.2694 110.868 69.2515 110.831 69.2484 110.792L66.3031 74.9995C66.3005 74.9582 66.314 74.9176 66.3408 74.8862C66.3676 74.8547 66.4055 74.8349 66.4466 74.831C66.4877 74.8291 66.5279 74.8429 66.5592 74.8695C66.5904 74.8962 66.6104 74.9337 66.6151 74.9745L69.576 110.767C69.5777 110.788 69.5753 110.808 69.569 110.828C69.5627 110.847 69.5526 110.866 69.5393 110.881C69.526 110.897 69.5096 110.91 69.4913 110.919C69.473 110.928 69.453 110.934 69.4325 110.936H69.4044Z" fill="#263238"/>
<path d="M94.6826 111.619L104.561 110.115L107.671 76.9775L99.8057 75.7326L94.6826 111.619Z" fill="#0A76B6"/>
<path opacity="0.2" d="M94.6826 111.619L104.561 110.115L107.671 76.9775L99.8057 75.7326L94.6826 111.619Z" fill="black"/>
<path d="M61.0678 103.532L60.163 82.3564C60.1406 81.8333 60.2259 81.3112 60.4134 80.8223C60.6009 80.3334 60.8867 79.8882 61.2531 79.5142C61.6195 79.1402 62.0588 78.8453 62.5437 78.6478C63.0286 78.4503 63.5489 78.3544 64.0723 78.3659L91.547 78.9899C92.088 79.0021 92.6203 79.1289 93.1087 79.3619C93.5972 79.5948 94.0306 79.9287 94.3806 80.3415C94.7305 80.7542 94.989 81.2365 95.139 81.7564C95.2889 82.2764 95.3269 82.8222 95.2505 83.3579L92.2054 104.68C92.0736 105.614 91.6018 106.466 90.8804 107.074C90.1589 107.681 89.2387 108.001 88.296 107.972L64.7743 107.192C63.8087 107.162 62.8901 106.768 62.2026 106.089C61.5152 105.411 61.1098 104.497 61.0678 103.532Z" fill="#263238"/>
<path d="M90.9612 95.9936C90.9026 95.9947 90.8445 95.9833 90.7907 95.9601C90.7369 95.937 90.6886 95.9027 90.6492 95.8594L87.9784 92.9359L85.0956 95.5692C85.0157 95.6424 84.91 95.6809 84.8018 95.6762C84.6936 95.6715 84.5916 95.6241 84.5184 95.5443L81.8476 92.6208L78.9648 95.2541C78.8849 95.3273 78.7792 95.3658 78.671 95.3611C78.5628 95.3564 78.4608 95.309 78.3876 95.2291L75.7137 92.3057L72.834 94.939C72.792 94.977 72.7426 95.0061 72.689 95.0243C72.6353 95.0426 72.5785 95.0496 72.522 95.0451C72.4136 95.0386 72.3119 94.9906 72.2381 94.9109L69.5673 91.9906L66.6876 94.6208C66.6072 94.6941 66.501 94.7327 66.3923 94.728C66.2835 94.7233 66.181 94.6758 66.1072 94.5958C66.0708 94.5562 66.0426 94.5098 66.0243 94.4593C66.006 94.4087 65.9979 94.355 66.0005 94.3013C66.0031 94.2476 66.0164 94.1949 66.0395 94.1464C66.0627 94.0979 66.0952 94.0544 66.1353 94.0186L69.3177 91.1076C69.3981 91.0343 69.5043 90.9957 69.613 91.0004C69.7218 91.0051 69.8243 91.0526 69.8981 91.1326L72.5688 94.056L75.4485 91.4228C75.5302 91.351 75.6362 91.313 75.7449 91.3167C75.8535 91.3225 75.9554 91.3706 76.0288 91.4508L78.6996 94.3743L81.5824 91.741C81.6218 91.7044 81.668 91.6759 81.7185 91.6573C81.7689 91.6388 81.8226 91.6304 81.8763 91.6327C81.93 91.635 81.9827 91.648 82.0313 91.6709C82.08 91.6937 82.1236 91.7261 82.1596 91.7659L84.8304 94.6894L87.7132 92.0561C87.7931 91.9829 87.8988 91.9444 88.007 91.9491C88.1152 91.9538 88.2172 92.0013 88.2904 92.0811L91.2732 95.3196C91.3265 95.3792 91.3613 95.453 91.3733 95.532C91.3854 95.611 91.3742 95.6919 91.3412 95.7646C91.3081 95.8374 91.2545 95.899 91.1871 95.9419C91.1196 95.9847 91.0411 96.007 90.9612 96.006V95.9936Z" fill="white"/>
<path d="M39.234 112.377L37.2809 111.444L35.5399 102.967L36.4853 101.928L39.234 112.377Z" fill="#0A76B6"/>
<path d="M39.234 112.377L41.8267 110.861L39.6053 103.878L36.4853 101.928L39.234 112.377Z" fill="#0A76B6"/>
<path opacity="0.2" d="M39.234 112.377L41.8267 110.861L39.6053 103.878L36.4853 101.928L39.234 112.377Z" fill="black"/>
<path d="M81.744 113.918H81.5287C81.115 113.907 80.7226 113.732 80.438 113.432C80.1533 113.131 79.9997 112.73 80.0108 112.316C80.022 111.902 80.1971 111.51 80.4975 111.225C80.798 110.941 81.1992 110.787 81.613 110.798C84.0154 110.876 89.101 109.401 92.0088 106.58C92.1844 106.408 92.3982 106.28 92.6328 106.206C97.5593 104.727 99.3907 107.713 99.4656 107.841L96.7824 109.429C96.7918 109.449 96.8033 109.467 96.8167 109.485C96.7886 109.444 96.0897 108.549 93.8683 109.098C90.221 112.424 84.6238 113.918 81.744 113.918Z" fill="#263238"/>
<path d="M81.5537 115.99L75.8722 115.634L75.426 105.157L83.0606 105.441L81.5537 115.99Z" fill="#0A76B6"/>
<path d="M81.5537 115.99L82.8828 114.667L83.7065 108.137L83.0606 105.441L81.5537 115.99Z" fill="#0A76B6"/>
<path opacity="0.2" d="M81.5537 115.99L82.8828 114.667L83.7065 108.137L83.0606 105.441L81.5537 115.99Z" fill="black"/>
<path d="M114.476 112.025C114.272 112.024 114.074 111.957 113.911 111.834C110.666 109.369 106.283 104.992 104.601 100.771C104.576 100.71 104.558 100.646 104.548 100.58C103.728 95.7007 102.944 85.4327 102.91 84.9991C102.901 84.8761 102.916 84.7526 102.954 84.6355C102.993 84.5184 103.054 84.4101 103.135 84.3167C103.297 84.128 103.528 84.0115 103.776 83.9929C104.024 83.9742 104.27 84.055 104.458 84.2174C104.647 84.3797 104.763 84.6104 104.782 84.8587C104.782 84.9616 105.584 95.3294 106.383 100.169C108.061 104.274 112.623 108.49 115.05 110.343C115.206 110.461 115.321 110.626 115.379 110.814C115.437 111.001 115.434 111.202 115.371 111.388C115.308 111.574 115.189 111.735 115.029 111.85C114.87 111.964 114.678 112.025 114.482 112.025H114.476Z" fill="#263238"/>
<path d="M118.803 112.496C118.08 112.496 117.259 112.168 116.364 111.522C116.162 111.377 116.027 111.157 115.988 110.912C115.949 110.667 116.009 110.416 116.154 110.215C116.3 110.014 116.52 109.879 116.765 109.84C117.01 109.8 117.261 109.86 117.462 110.006C118.236 110.564 118.657 110.63 118.803 110.63C119.052 110.63 119.29 110.728 119.465 110.904C119.641 111.08 119.739 111.318 119.739 111.566C119.739 111.814 119.641 112.052 119.465 112.228C119.29 112.403 119.052 112.502 118.803 112.502V112.496Z" fill="#263238"/>
<path d="M116.626 111.494C117.627 108.521 121.733 109.107 123.15 109.55C124.359 109.902 125.52 110.405 126.603 111.048C127.368 111.547 127.38 112.386 126.36 112.864C125.112 113.45 121.942 112.929 121.942 112.929C123.577 113.644 121.942 114.801 119.069 113.666C118.136 113.297 116.273 112.586 116.626 111.494Z" fill="#0A76B6"/>
<path d="M106.66 86.272C106.289 88.7992 104.196 90.6619 102.492 90.4123C100.788 90.1627 100.72 87.9163 101.091 85.3766C101.462 82.8369 102.136 81.0086 103.84 81.2582C105.543 81.5078 107.032 83.7542 106.66 86.272Z" fill="#263238"/>
<path d="M65.4826 76.1944C65.6239 76.1944 65.7384 76.0799 65.7384 75.9386C65.7384 75.7973 65.6239 75.6827 65.4826 75.6827C65.3413 75.6827 65.2267 75.7973 65.2267 75.9386C65.2267 76.0799 65.3413 76.1944 65.4826 76.1944Z" fill="#263238"/>
<path d="M68.0815 77.7794C68.0815 77.83 68.0665 77.8794 68.0384 77.9215C68.0103 77.9636 67.9703 77.9964 67.9236 78.0157C67.8768 78.0351 67.8254 78.0402 67.7758 78.0303C67.7261 78.0204 67.6805 77.9961 67.6448 77.9603C67.609 77.9245 67.5846 77.8789 67.5748 77.8293C67.5649 77.7797 67.5699 77.7282 67.5893 77.6815C67.6087 77.6347 67.6415 77.5948 67.6835 77.5667C67.7256 77.5385 67.7751 77.5235 67.8257 77.5235C67.8935 77.5235 67.9586 77.5505 68.0066 77.5985C68.0546 77.6464 68.0815 77.7115 68.0815 77.7794Z" fill="#263238"/>
<path d="M68.3686 108.012C68.3686 108.063 68.3536 108.112 68.3254 108.154C68.2973 108.196 68.2574 108.229 68.2106 108.249C68.1639 108.268 68.1124 108.273 68.0628 108.263C68.0132 108.253 67.9676 108.229 67.9318 108.193C67.896 108.157 67.8717 108.112 67.8618 108.062C67.8519 108.012 67.857 107.961 67.8764 107.914C67.8957 107.868 67.9285 107.828 67.9706 107.799C68.0127 107.771 68.0621 107.756 68.1127 107.756C68.1806 107.756 68.2456 107.783 68.2936 107.831C68.3416 107.879 68.3686 107.944 68.3686 108.012Z" fill="#263238"/>
<path d="M70.7117 109.856C70.7117 109.907 70.6967 109.956 70.6686 109.998C70.6404 110.04 70.6005 110.073 70.5537 110.092C70.507 110.112 70.4556 110.117 70.4059 110.107C70.3563 110.097 70.3107 110.073 70.2749 110.037C70.2392 110.001 70.2148 109.956 70.2049 109.906C70.195 109.856 70.2001 109.805 70.2195 109.758C70.2388 109.711 70.2716 109.671 70.3137 109.643C70.3558 109.615 70.4052 109.6 70.4558 109.6C70.5237 109.6 70.5888 109.627 70.6367 109.675C70.6847 109.723 70.7117 109.788 70.7117 109.856Z" fill="#263238"/>
<path d="M25.7431 112.923C25.294 112.902 24.8552 112.78 24.4594 112.567C24.0636 112.354 23.7207 112.054 23.4562 111.691C23.4432 111.674 23.4338 111.655 23.4284 111.634C23.4231 111.614 23.422 111.592 23.4253 111.571C23.4285 111.551 23.4359 111.53 23.4471 111.513C23.4583 111.495 23.473 111.479 23.4904 111.467C23.5078 111.455 23.5275 111.446 23.5482 111.442C23.5689 111.438 23.5903 111.438 23.611 111.442C23.6318 111.447 23.6514 111.455 23.6688 111.467C23.6861 111.479 23.7008 111.495 23.712 111.513C24.2954 112.355 25.584 112.801 26.1456 112.536C26.2018 112.512 26.252 112.476 26.2922 112.43C26.0085 112.305 25.7598 112.112 25.5683 111.869C25.3767 111.625 25.2482 111.338 25.194 111.032C25.1222 110.636 25.0661 110.096 25.3906 110.028C25.8398 109.928 26.4264 111.01 26.6386 111.831C26.677 111.967 26.6907 112.108 26.6791 112.249C26.8591 112.303 27.0484 112.318 27.2345 112.293C27.3184 112.286 27.4 112.262 27.4741 112.223C27.5482 112.183 27.6133 112.128 27.665 112.062C27.4597 111.907 27.2894 111.71 27.1652 111.485C27.041 111.26 26.9657 111.011 26.9443 110.755C26.8258 109.9 26.9162 109.753 27.0098 109.678C27.0402 109.655 27.0764 109.641 27.1144 109.637C27.1524 109.633 27.1907 109.64 27.2251 109.656C27.559 109.797 27.9614 111.007 28.0394 111.694C28.0488 111.765 28.0488 111.838 28.0394 111.909C28.1739 111.961 28.3166 111.988 28.4606 111.99C28.7252 112 28.9869 111.932 29.2126 111.794C29.1689 111.766 29.1283 111.734 29.0878 111.703C28.7758 111.425 28.6322 110.982 28.6884 110.352C28.7321 109.862 28.8413 109.594 29.0378 109.51C29.1013 109.484 29.1707 109.478 29.2377 109.491C29.3047 109.504 29.3665 109.537 29.4154 109.585C29.626 109.817 29.7834 110.093 29.8766 110.392C29.9698 110.692 29.9966 111.008 29.9551 111.319C29.928 111.449 29.8738 111.571 29.796 111.678C30.3701 111.778 31.175 111.616 31.8708 111.444C31.8913 111.439 31.9125 111.438 31.9334 111.442C31.9542 111.445 31.9741 111.452 31.9921 111.463C32.01 111.474 32.0257 111.489 32.038 111.506C32.0504 111.523 32.0593 111.542 32.0642 111.563C32.0692 111.583 32.07 111.604 32.0667 111.625C32.0634 111.646 32.056 111.666 32.045 111.684C32.034 111.702 32.0196 111.718 32.0025 111.73C31.9855 111.742 31.9662 111.751 31.9457 111.756C31.1002 111.965 30.1891 112.137 29.5464 111.95C29.2327 112.188 28.8485 112.315 28.4544 112.312C28.2795 112.309 28.1064 112.276 27.9427 112.215C27.8701 112.327 27.7728 112.421 27.6581 112.49C27.5434 112.559 27.4145 112.6 27.2813 112.611C27.0468 112.641 26.8085 112.621 26.5824 112.552C26.5096 112.674 26.4006 112.771 26.2704 112.829C26.1031 112.897 25.9235 112.929 25.7431 112.923ZM25.4748 110.34C25.4316 110.552 25.4402 110.771 25.4998 110.979C25.5438 111.229 25.6473 111.464 25.8015 111.665C25.9558 111.866 26.1562 112.027 26.3858 112.134C26.3815 112.06 26.3689 111.986 26.3484 111.915C26.105 111.023 25.637 110.408 25.4748 110.34ZM27.2126 110.068C27.2147 110.283 27.2324 110.498 27.2657 110.711C27.3001 111.091 27.4681 111.447 27.7399 111.716C27.6631 111.14 27.4846 110.582 27.2126 110.068ZM29.1751 109.797C29.1751 109.797 29.0566 109.856 29.0129 110.377C28.9692 110.898 29.0597 111.257 29.303 111.466C29.3606 111.513 29.4234 111.552 29.4902 111.585C29.5723 111.497 29.6303 111.389 29.6587 111.273C29.7143 110.781 29.5816 110.288 29.2874 109.89C29.2219 109.809 29.1845 109.797 29.1751 109.797Z" fill="#263238"/>
<path d="M71.4074 115.282L72.253 113.815L71.4074 112.349H70.5026L71.0143 113.815L70.5026 115.282H71.4074Z" fill="#263238"/>
<path d="M70.5619 114.58C70.4576 114.586 70.3531 114.572 70.2548 114.536C70.1564 114.501 70.0663 114.446 69.9901 114.374C69.9139 114.303 69.8532 114.217 69.8117 114.121C69.7701 114.025 69.7487 113.921 69.7487 113.817C69.7487 113.712 69.7701 113.609 69.8117 113.513C69.8532 113.417 69.9139 113.331 69.9901 113.259C70.0663 113.188 70.1564 113.133 70.2548 113.098C70.3531 113.062 70.4576 113.047 70.5619 113.054L69.1267 112.767L68.743 113.928L69.3857 114.907L70.5619 114.58Z" fill="#263238"/>
<path d="M70.6867 112.349H68.9926L68.147 113.815L68.9926 115.282H70.6867L71.5322 113.815L70.6867 112.349ZM69.8412 114.58C69.6899 114.58 69.5418 114.536 69.4157 114.452C69.2896 114.369 69.1911 114.25 69.1328 114.11C69.0744 113.97 69.0588 113.817 69.088 113.668C69.1171 113.52 69.1897 113.383 69.2965 113.276C69.4032 113.169 69.5394 113.096 69.6878 113.066C69.8362 113.036 69.99 113.051 70.1299 113.109C70.2697 113.167 70.3893 113.265 70.4734 113.39C70.5576 113.516 70.6025 113.664 70.6025 113.815C70.6025 114.018 70.5224 114.212 70.3797 114.355C70.237 114.498 70.0434 114.579 69.8412 114.58Z" fill="#0A76B6"/>
<path d="M130.382 112.249L129.755 111.16L130.382 110.071H131.052L130.675 111.16L131.052 112.249H130.382Z" fill="#0A76B6"/>
<path d="M131.009 111.728C131.087 111.734 131.165 111.724 131.239 111.698C131.312 111.672 131.38 111.631 131.437 111.578C131.494 111.525 131.54 111.46 131.571 111.389C131.603 111.317 131.619 111.24 131.619 111.162C131.619 111.084 131.603 111.006 131.571 110.935C131.54 110.863 131.494 110.799 131.437 110.746C131.38 110.693 131.312 110.652 131.239 110.626C131.165 110.6 131.087 110.59 131.009 110.596L132.076 110.383L132.36 111.244L131.886 111.971L131.009 111.728Z" fill="#0A76B6"/>
<path d="M130.918 110.071H132.166L132.79 111.16L132.166 112.249H130.918L130.294 111.16L130.918 110.071ZM131.542 111.728C131.655 111.729 131.765 111.696 131.859 111.634C131.952 111.572 132.026 111.483 132.069 111.38C132.113 111.276 132.124 111.162 132.103 111.051C132.081 110.941 132.027 110.84 131.948 110.76C131.869 110.68 131.768 110.626 131.657 110.604C131.547 110.581 131.433 110.592 131.329 110.635C131.225 110.678 131.136 110.751 131.074 110.844C131.011 110.938 130.978 111.048 130.978 111.16C130.977 111.235 130.992 111.309 131.02 111.378C131.048 111.447 131.09 111.51 131.143 111.563C131.196 111.615 131.259 111.657 131.328 111.686C131.397 111.714 131.471 111.728 131.545 111.728H131.542Z" fill="#263238"/>
<path d="M107.016 113.697H108.426C108.603 113.696 108.772 113.625 108.896 113.5C109.021 113.375 109.091 113.206 109.091 113.029C109.091 112.853 109.021 112.683 108.896 112.558C108.772 112.433 108.603 112.362 108.426 112.361H107.016C106.839 112.361 106.669 112.432 106.544 112.557C106.419 112.682 106.348 112.852 106.348 113.029C106.348 113.206 106.419 113.376 106.544 113.501C106.669 113.626 106.839 113.697 107.016 113.697Z" fill="#263238"/>
<path d="M104.748 112.436C104.879 112.198 105.076 112.004 105.316 111.877C105.556 111.75 105.829 111.696 106.099 111.721C106.369 111.747 106.626 111.852 106.838 112.022C107.05 112.192 107.207 112.42 107.291 112.678C107.375 112.937 107.381 113.214 107.309 113.476C107.237 113.738 107.09 113.973 106.886 114.152C106.681 114.331 106.429 114.447 106.16 114.485C105.891 114.523 105.617 114.481 105.372 114.364C105.034 114.191 104.779 113.89 104.662 113.529C104.546 113.168 104.576 112.775 104.748 112.436Z" fill="#0A76B6"/>
<path d="M105.128 114.364L105.515 114.546L106.859 111.696L106.472 111.514L105.128 114.364Z" fill="#263238"/>
</svg>
